<?xml version="1.0" standalone="no"?>
<!DOCTYPE svg PUBLIC "-//W3C//DTD SVG 1.1//EN" "http://www.w3.org/Graphics/SVG/1.1/DTD/svg11.dtd" >
<svg xmlns="http://www.w3.org/2000/svg" xmlns:xlink="http://www.w3.org/1999/xlink" version="1.1">
<metadata>
Created by FontForge 20201107 at Mon Nov 11 16:32:17 2019
 By 
Imagex 2019. All Rights Reserved
</metadata>
<defs>
<font id="Playtimes" horiz-adv-x="1014" >
  <font-face 
    font-family="Playtimes"
    font-weight="400"
    font-stretch="normal"
    units-per-em="2048"
    panose-1="2 0 5 0 0 0 0 0 0 0"
    ascent="1638"
    descent="-410"
    x-height="1437"
    cap-height="1857"
    bbox="-268.561 -594 3412 2195.5"
    underline-thickness="150"
    underline-position="-292"
    unicode-range="U+0020-F002"
  />
<missing-glyph horiz-adv-x="1024" 
d="M100 0v1434h824v-1434h-824zM150 50h724v1334h-724v-1334zM325 1148q31 28 58 43q53 30 112 30q92 0 148 -47.5t56 -127.5q0 -49 -23 -98.5t-87 -129.5q-63 -80 -99 -132t-36 -99q0 -38 24 -133h-32q-35 97 -35 148q0 76 81.5 218t81.5 217q0 57 -33 90t-91 33
q-38 0 -69 -17q-26 -15 -56 -40v45zM389 334l57 58q11 10 20 10q10 0 22 -11l56 -60q9 -11 9 -20q0 -11 -10 -22l-56 -62q-14 -14 -21 -14q-11 0 -20 10l-61 71q-7 9 -7 18q0 10 11 22z" />
    <glyph glyph-name=".notdef" horiz-adv-x="1024" 
d="M100 0v1434h824v-1434h-824zM150 50h724v1334h-724v-1334zM325 1148q31 28 58 43q53 30 112 30q92 0 148 -47.5t56 -127.5q0 -49 -23 -98.5t-87 -129.5q-63 -80 -99 -132t-36 -99q0 -38 24 -133h-32q-35 97 -35 148q0 76 81.5 218t81.5 217q0 57 -33 90t-91 33
q-38 0 -69 -17q-26 -15 -56 -40v45zM389 334l57 58q11 10 20 10q10 0 22 -11l56 -60q9 -11 9 -20q0 -11 -10 -22l-56 -62q-14 -14 -21 -14q-11 0 -20 10l-61 71q-7 9 -7 18q0 10 11 22z" />
    <glyph glyph-name=".null" horiz-adv-x="0" 
 />
    <glyph glyph-name="nonmarkingreturn" horiz-adv-x="508" 
 />
    <glyph glyph-name="space" unicode=" " horiz-adv-x="508" 
 />
    <glyph glyph-name="space" unicode="&#xa0;" horiz-adv-x="508" 
 />
    <glyph glyph-name="exclam" unicode="!" horiz-adv-x="959" 
d="M182 1170q16 -236 10 -416q-9 -132 -9 -266q0 -34 67 -31l367 3q40 11 40 36q-8 161 -8 406q11 402 64 864q9 26 -29 37l-440 6q-70 3 -79 -40q2 -344 17 -599zM414 -5q-173 0 -278 41.5t-121 96.5q-36 110 16 163q78 57 190 67q163 12 383 9q113 0 176 -54.5t63 -111.5
q2 -87 -48 -121q-98 -79 -381 -90z" />
    <glyph glyph-name="quotedbl" unicode="&#x22;" horiz-adv-x="1911" 
d="M421 1384q-173 0 -278 41.5t-121 96.5q-36 110 16 163q50 88 190 99q188 29 383 9q138 -15 188.5 -78t50.5 -120q16 -196 -20 -306q-47 -192 -441 -216q-35 10 -19 52q80 234 51 259zM1326 1384q-173 0 -278 41.5t-121 96.5q-36 110 16 163q50 88 190 99q188 29 383 9
q138 -15 188.5 -78t50.5 -120q16 -196 -20 -306q-47 -192 -441 -216q-35 10 -19 52q80 234 51 259z" />
    <glyph glyph-name="numbersign" unicode="#" horiz-adv-x="1918" 
d="M61 665q-31 7 -45 -23l-7 -302q-3 -55 48 -62q43 0 84 1q-41 -117 -86 -238q-16 -27 20 -40l449 -6q71 -3 92 43q34 131 63 250q49 1 96 3q79 3 153 5q-42 -132 -77 -268q-10 -36 60 -33l377 3q45 13 52 39q23 110 59 257q97 -2 193 -2q41 0 37 53l-3 290q-14 32 -43 32
q-38 -1 -80 -3q18 58 37 118q95 -3 191 -3q41 0 37 53l-3 290q-14 32 -43 32q-28 -1 -57 -2q43 122 90 249q16 27 -20 40l-449 6q-71 3 -92 -43q-34 -134 -64 -255q-121 2 -246 3q41 129 75 262q10 36 -60 33l-377 -3q-45 -13 -52 -39q-23 -108 -58 -252q-105 0 -212 -1
q-31 7 -45 -23l-7 -302q-3 -55 48 -62q55 0 108 1l-32 -100q-104 0 -211 -1zM914 778q68 3 133 5q-3 -11 -5 -22q-10 -51 -21 -100q-126 2 -256 4q1 8 3 16q10 47 19 93q66 2 127 4z" />
    <glyph glyph-name="dollar" unicode="$" horiz-adv-x="1930" 
d="M503 1453q-360 -92 -449 -314q-117 -362 364 -661q107 -96 -41 -106h-286q-79 4 -117 -35q-13 -21 38 -243q30 -56 76 -78q262 -43 509 -47q-1 -4 -1 -7q-9 -58 -6 -139q0 -16 69 -15l376 2q42 5 42 16q-8 69 -9 172q40 5 79 12q193 38 231 194q26 197 -358 477
q2 37 57 38l631 -1q45 7 81 28q-5 416 -55 648q-17 24 -45 38q-324 62 -619 67q0 68 -2 138q9 12 -30 18l-391 3q-72 1 -81 -19q1 -94 7 -174q-35 -5 -70 -12z" />
    <glyph glyph-name="percent" unicode="%" horiz-adv-x="1388" 
d="M853 681q102 253 198 447q74 141 140 286q18 36 -53 33l-378 -3q-47 -13 -59 -39q-71 -173 -193 -436q-214 -432 -498 -928q-21 -27 12 -40l448 -6q71 -3 101 43q169 369 282 643zM454 1058q-59 -40 -317 -34q-69 5 -108 72q-36 66 -18 254q10 82 147 97q204 13 289 -31
q63 -36 62 -192q-3 -132 -55 -166zM274 1228q33 8 39 31q10 63 -20 70q-128 12 -141 -19q-16 -41 0 -77q13 -26 122 -5zM803 393q60 40 318 34q69 -5 107 -72q36 -66 19 -253q-11 -83 -147 -97q-204 -13 -289 30q-63 36 -63 193q3 131 55 165zM970 280q-33 -8 -38 -31
q-10 -63 20 -69q128 -12 140 19q17 41 0 77q-12 25 -122 4z" />
    <glyph glyph-name="ampersand" unicode="&#x26;" horiz-adv-x="1884" 
d="M857 620q-135 -2 -298 2q-38 -27 -28 -58q12 -55 136 -96q40 -16 189 -5q-2 69 1 157zM1440 536q99 16 211 34q48 -10 60 -58q3 -126 6 -200q6 -117 15 -216q-3 -33 -36 -55q-629 -149 -1203 -76q-200 21 -356 163q-139 126 -130 369q8 248 193 301q-152 61 -150 288
q14 389 632 353q91 -26 138 -267q-3 -45 -48 -69q-109 33 -163 -5q-52 -27 -75 -89q39 -49 173 -44q100 5 174 9q10 94 22 200l13 9q139 44 313 39q14 -3 16 -9q-4 -315 -5 -467q1 -256 185 -210h15z" />
    <glyph glyph-name="quotesingle" unicode="'" horiz-adv-x="959" 
d="M421 1384q-173 0 -278 41.5t-121 96.5q-36 110 16 163q50 88 190 99q188 29 383 9q138 -15 188.5 -78t50.5 -120q16 -196 -20 -306q-47 -192 -441 -216q-35 10 -19 52q80 234 51 259z" />
    <glyph glyph-name="parenleft" unicode="(" horiz-adv-x="1148" 
d="M1005 -154q-18 -25 -41 -26q-243 -10 -477 31q-200 29 -356 225q-177 220 -87 1323q69 383 343 458q229 46 459 48q61 1 63 -40q-35 -403 -104 -414q-108 -10 -202 -35q-69 -50 -87 -186q-46 -514 -4 -688q12 -76 90 -80q88 9 211 16q31 -14 192 -632z" />
    <glyph glyph-name="parenright" unicode=")" horiz-adv-x="1148" 
d="M14 1877q18 25 41 26q243 10 477 -31q200 -29 356 -225q177 -220 87 -1323q-69 -383 -343 -458q-229 -46 -459 -48q-61 -1 -63 40q35 403 104 414q108 10 202 35q69 50 87 186q46 514 4 688q-12 76 -90 80q-88 -9 -211 -16q-31 14 -192 632z" />
    <glyph glyph-name="asterisk" unicode="*" horiz-adv-x="1116" 
d="M17 1530q-19 6 -27 -22l-4 -282q-2 -52 29 -59q69 0 134 1q-39 -62 -81 -131q-10 -29 38 -55l254 -148q30 -9 33 10q52 85 101 166q2 -2 3 -4q43 -83 93 -162q13 -20 56 9l239 153q23 23 14 38q-43 59 -95 140q69 -4 138 -4q25 0 23 50l-2 272q-8 30 -26 30
q-61 -4 -137 -5q39 62 78 123q9 14 -14 37l-243 148q-43 29 -56 8q-46 -79 -80 -142q-43 67 -88 137q-3 19 -33 10l-251 -153q-47 -28 -37 -57q35 -56 68 -107q-63 0 -127 -1z" />
    <glyph glyph-name="plus" unicode="+" horiz-adv-x="1122" 
d="M274 422q-9 -93 -9 -187q0 -24 69 -22l376 2q42 8 42 25q-7 92 -9 223q11 0 22 -1q93 -9 187 -9q24 0 22 69l-2 376q-8 42 -25 42q-83 -7 -196 -8q0 98 -2 201q9 18 -30 26l-391 4q-72 2 -81 -28q1 -104 4 -196q-96 0 -197 -2q-18 9 -26 -30l-4 -391q-2 -72 28 -81
q119 1 223 5q-1 -9 -1 -18z" />
    <glyph glyph-name="comma" unicode="," horiz-adv-x="959" 
d="M421 2q-173 0 -278 41.5t-121 96.5q-36 110 16 163q50 88 190 99q188 29 383 9q138 -15 188.5 -78t50.5 -120q16 -196 -20 -306q-47 -192 -441 -216q-35 10 -19 52q80 234 51 259z" />
    <glyph glyph-name="hyphen" unicode="-" horiz-adv-x="1115" 
d="M473 452q166 16 292 10q93 -9 187 -9q24 0 22 69l-2 376q-8 42 -25 42q-114 -9 -286 -9q-282 12 -607 6q-18 9 -26 -30l-4 -391q-2 -72 28 -81q242 2 421 17z" />
    <glyph glyph-name="hyphen" unicode="&#xad;" horiz-adv-x="1115" 
d="M473 452q166 16 292 10q93 -9 187 -9q24 0 22 69l-2 376q-8 42 -25 42q-114 -9 -286 -9q-282 12 -607 6q-18 9 -26 -30l-4 -391q-2 -72 28 -81q242 2 421 17z" />
    <glyph glyph-name="period" unicode="." horiz-adv-x="959" 
d="M421 2q-173 0 -278 41.5t-121 96.5q-36 110 16 163q50 88 190 99q188 29 383 9q138 -15 188.5 -78t50.5 -120q2 -87 -48 -121q-98 -79 -381 -90z" />
    <glyph glyph-name="slash" unicode="/" horiz-adv-x="1042" 
d="M731 681q51 253 108 447q46 141 83 286q10 36 -60 33l-377 -3q-45 -13 -52 -39q-36 -173 -105 -436q-126 -432 -310 -928q-16 -27 20 -40l449 -6q71 -3 92 43q95 369 152 643z" />
    <glyph glyph-name="zero" unicode="0" horiz-adv-x="2280" 
d="M1895 117q-250 -134 -1334 -113q-289 15 -451 243q-151 222 -77 855q44 278 616 328q859 43 1215 -103q265 -123 263 -651q-13 -443 -232 -559zM1256 628q205 42 239 155q59 311 -125 345q-789 60 -867 -94q-103 -204 0 -383q78 -126 753 -23z" />
    <glyph glyph-name="one" unicode="1" horiz-adv-x="720" 
d="M556 651q-16 242 -10 427q9 135 9 273q0 35 -69 32l-376 -3q-42 -12 -42 -37q9 -166 9 -417q-12 -413 -66 -887q-9 -26 30 -38l451 -6q72 -3 81 41q-2 353 -17 615z" />
    <glyph glyph-name="two" unicode="2" horiz-adv-x="1944" 
d="M49 248q-43 -224 23 -248q1035 -76 1598 16q46 22 76 78q51 222 38 243q-38 39 -117 35h-175q-148 10 -41 106q370 299 253 661q-89 222 -449 314q-536 103 -1204 -24q-28 -14 -45 -38q-43 -310 -4 -597q36 -21 81 -28l708 21q55 -1 57 -38q-430 -278 -739 -436
q-49 -28 -60 -65z" />
    <glyph glyph-name="three" unicode="3" horiz-adv-x="1941" 
d="M1217 1019q7 52 -45 79q-237 51 -623 -19q-396 -98 -491 -83q-45 24 -48 69q47 241 182 304q613 138 1226 48q274 -54 343 -331q29 -175 -39 -248q62 -11 78 -145q13 -439 -126 -565q-156 -142 -356 -163q-574 -73 -1203 76q-33 22 -36 55q9 99 15 216q3 74 6 200
q27 43 60 58q456 -25 1030 -64q78 3 90 58q10 31 16 72q-370 -21 -785 -12q-39 6 -56 25q-13 88 14 295q17 19 60 30q276 7 545 -9q134 -5 143 54z" />
    <glyph glyph-name="four" unicode="4" horiz-adv-x="1873" 
d="M531 638q-210 -17 -368 3q-151 25 -151 94q-7 236 11 318q24 217 54 372q7 22 43 32q138 15 757 1q88 -12 95 -41q7 -189 -29 -190q-339 -36 -339 -330l692 1q304 -17 386 -219q65 -324 27 -659q-14 -27 -44 -40q-304 34 -795 3q-28 7 -41 31q41 504 7 600q-5 45 -305 24
z" />
    <glyph glyph-name="five" unicode="5" horiz-adv-x="2170" 
d="M38 1417q9 24 40 41q887 78 1853 -3q32 -9 38 -30q7 -130 5 -242q3 -25 -29 -51q-662 40 -1256 12q-68 -15 -66 -131q280 38 921 25q272 -11 409 -180q111 -229 7 -634q-86 -227 -610 -244q-817 -31 -1143 77q-192 55 -204 457l-1 -1q0 20 39 46q129 23 520 26
q-52 -253 473 -128q166 51 175 114q53 252 -74 278q-548 44 -611 -70q-2 -4 -4 -7l-477 86q-25 23 -27 55q7 265 22 504z" />
    <glyph glyph-name="six" unicode="6" horiz-adv-x="2170" 
d="M681 842q-146 -31 -175 -114q-53 -253 74 -278q548 -44 611 70q83 150 22 282q-48 93 -532 40zM538 1009q379 42 1020 29q272 -11 409 -180q111 -229 7 -634q-86 -227 -610 -244q-817 -31 -1143 77q-192 55 -200 403l-1 -1q2 565 26 856q18 116 335 167q595 105 1489 -27
q32 -9 38 -30q82 -130 80 -242q3 -25 -29 -51q-662 40 -1355 8q-68 -15 -66 -131z" />
    <glyph glyph-name="seven" unicode="7" horiz-adv-x="2097" 
d="M1097 1448q-185 -6 -427 10q-262 15 -615 17q-44 -9 -41 -81l6 -451q12 -39 38 -30q474 54 887 66h58q-88 -314 -344 -318q-646 3 -639 -623q10 -20 43 -23q520 -17 952 -7q20 14 27 34q-4 366 293 376q616 0 626 1008q-14 14 -40 24q-345 14 -824 -2z" />
    <glyph glyph-name="eight" unicode="8" horiz-adv-x="2177" 
d="M1304 854q186 23 216 83q54 166 -113 184q-712 32 -783 -50q-93 -109 0 -204q71 -68 680 -13zM666 626q-196 -25 -229 -91q-56 -184 120 -204q756 -35 831 56q99 120 0 225q-75 74 -722 14zM184 760q-166 85 -164 320q11 236 209 298q226 72 1205 60q261 -8 408 -129
q112 -106 69 -457q-22 -61 -106 -101q226 -81 224 -374q-12 -260 -222 -329q-240 -78 -1279 -66q-277 9 -432 143q-119 116 -74 503q30 85 162 132z" />
    <glyph glyph-name="nine" unicode="9" horiz-adv-x="2187" 
d="M1363 603q146 31 175 114q53 253 -74 278q-548 44 -611 -70q-83 -150 -22 -282q48 -93 532 -40zM1506 436q-379 -42 -1020 -29q-272 11 -409 180q-111 229 -7 634q86 227 610 244q817 31 1143 -77q192 -55 200 -403l1 1q-9 -605 -26 -856q-18 -116 -315 -146
q-788 -24 -1509 6q-32 9 -38 30q-82 129 -80 242q-3 25 29 51q662 -40 1355 -8q68 15 66 131z" />
    <glyph glyph-name="colon" unicode=":" horiz-adv-x="959" 
d="M421 2q-173 0 -278 41.5t-121 96.5q-36 110 16 163q50 88 190 99q188 29 383 9q138 -15 188.5 -78t50.5 -120q2 -87 -48 -121q-98 -79 -381 -90zM421 582q-173 0 -278 41.5t-121 96.5q-36 110 16 163q50 88 190 99q188 29 383 9q138 -15 188.5 -78t50.5 -120
q2 -87 -48 -121q-98 -79 -381 -90z" />
    <glyph glyph-name="semicolon" unicode=";" horiz-adv-x="959" 
d="M421 2q-173 0 -278 41.5t-121 96.5q-36 110 16 163q50 88 190 99q188 29 383 9q138 -15 188.5 -78t50.5 -120q16 -196 -20 -306q-47 -192 -441 -216q-35 10 -19 52q80 234 51 259zM421 582q-173 0 -278 41.5t-121 96.5q-36 110 16 163q50 88 190 99q188 29 383 9
q138 -15 188.5 -78t50.5 -120q2 -87 -48 -121q-98 -79 -381 -90z" />
    <glyph glyph-name="semicolon" unicode="&#x37e;" horiz-adv-x="959" 
d="M421 2q-173 0 -278 41.5t-121 96.5q-36 110 16 163q50 88 190 99q188 29 383 9q138 -15 188.5 -78t50.5 -120q16 -196 -20 -306q-47 -192 -441 -216q-35 10 -19 52q80 234 51 259zM421 582q-173 0 -278 41.5t-121 96.5q-36 110 16 163q50 88 190 99q188 29 383 9
q138 -15 188.5 -78t50.5 -120q2 -87 -48 -121q-98 -79 -381 -90z" />
    <glyph glyph-name="less" unicode="&#x3c;" horiz-adv-x="1644" 
d="M1433 1598q-18 10 -475 -226t-895 -305q-26 -14 -33 -36q-37 -416 6 -561q3 -29 20 -47q742 -135 1375 -604q16 4 30 18q26 157 10 577q-13 18 -36 21q-337 140 -663 319q238 55 697 377q30 29 31 67l-54 340q-3 55 -13 60z" />
    <glyph glyph-name="equal" unicode="=" horiz-adv-x="1116" 
d="M38 1325q-30 -9 -28 -81l4 -391q8 -39 26 -30q325 -6 607 6q172 0 286 -9q17 0 25 42l2 376q2 69 -22 69q-94 0 -187 -9q-126 -6 -292 10q-179 15 -421 17zM932 144q30 9 28 81l-4 391q-8 39 -26 30q-325 6 -607 -6q-172 0 -286 9q-17 0 -25 -42l-2 -376q-2 -69 22 -69
q94 0 187 9q126 6 292 -10q179 -15 421 -17z" />
    <glyph glyph-name="greater" unicode="&#x3e;" horiz-adv-x="1644" 
d="M80 -180q18 -10 475 226t895 305q26 14 33 36q37 416 -6 561q-3 29 -20 47q-742 135 -1375 604q-16 -4 -30 -18q-26 -157 -10 -577q13 -18 36 -21q337 -140 663 -319q-238 -55 -697 -377q-30 -29 -31 -67l54 -340q3 -55 13 -60z" />
    <glyph glyph-name="question" unicode="?" horiz-adv-x="1897" 
d="M588 642q-11 -119 55 -141q241 -32 425 -9q64 17 76 73q15 137 181 265q521 299 404 639q-89 208 -449 295q-536 97 -1204 -23q-28 -13 -45 -35q-43 -292 -4 -561q36 -20 81 -27l708 20q55 -1 57 -35q-301 -269 -285 -461zM862 -12q-173 0 -278 41.5t-121 96.5
q-36 110 16 163q50 88 190 99q188 29 383 9q138 -15 188.5 -78t50.5 -120q2 -87 -48 -121q-98 -79 -381 -90z" />
    <glyph glyph-name="at" unicode="@" horiz-adv-x="2187" 
d="M1158 604q43 15 55 39q61 132 -22 282q-63 114 -611 70q-127 -25 -91 -302q47 -373 115 -388q693 -32 1355 8q32 -26 29 -51q2 -113 -80 -242q-6 -21 -38 -30q-721 -30 -1443 -10q-297 30 -335 169q-63 232 -72 837l1 -1q8 348 200 403q326 108 1143 77q524 -17 610 -244
q104 -405 -7 -634q-137 -169 -409 -180q-535 -10 -833 0q-81 5 -126 84q-42 77 -21 296q12 96 171 113q239 15 338 -35q74 -43 73 -226q0 -18 -2 -35zM955 577q45 12 52 43q13 85 -27 94q-174 16 -191 -26q-22 -55 0 -104q17 -35 166 -7z" />
    <glyph glyph-name="A" unicode="A" horiz-adv-x="1945" 
d="M1147 812q6 113 19 211q13 205 -372 168q-122 -24 -123 -81q3 -90 33 -153q15 -21 -14 -36q-374 9 -687 -18q-35 -3 -36 24q-12 147 -2 282q1 158 280 260q630 157 1327 -27q326 -101 200 -744q-23 -230 12 -384q33 -96 86 -123q16 -18 11 -36q-149 -145 -503 -208
q-35 3 -46 30q-21 20 -51 62q-264 -66 -919 -48q-225 25 -300 158q-92 134 -40 478q46 171 409 184q329 26 716 1zM1152 382q-8 55 -10 114v75q-57 60 -467 20q-120 -21 -142 -78q-38 -154 70 -170q455 -17 549 39z" />
    <glyph glyph-name="B" unicode="B" horiz-adv-x="1995" 
d="M500 979q-6 -182 -1 -397q245 -64 705 16q114 27 74 310q-24 140 -130 166q-592 44 -648 -95zM497 1353q184 93 678 90q598 2 658 -337q39 -632 -72 -822q-177 -235 -489 -263q-458 -35 -1131 -13q-116 20 -129 204q-6 511 9 688q21 469 15 862q-3 30 33 33q153 12 337 0
q60 -27 81 -105q6 -146 10 -337z" />
    <glyph glyph-name="C" unicode="C" horiz-adv-x="1964" 
d="M626 800q-193 -55 -99 -342q42 -107 251 -133q431 -45 761 57q44 36 86 13l145 -269q10 -30 -4 -60q-757 -176 -1483 44q-232 81 -263 632q17 479 271 597q701 253 1466 32q39 -18 38 -70l-228 -517q-25 -16 -57 -17q-337 127 -884 33z" />
    <glyph glyph-name="D" unicode="D" horiz-adv-x="1982" 
d="M644 912q-173 -36 -206 -188q-57 -307 104 -327q545 -70 684 16q78 81 39 398q-16 76 -88 99q-123 49 -533 2zM1290 1709q-5 100 34 108q279 25 406 -15q87 -22 93 -94q2 -300 7 -768q8 -177 -15 -688q-5 -150 -136 -210q-98 -28 -448 -34q-327 -18 -685 -3
q-311 14 -480 242q-105 185 -44 818q72 342 671 366q264 19 580 -2q6 133 17 280z" />
    <glyph glyph-name="E" unicode="E" horiz-adv-x="1907" 
d="M493 700q4 -82 22 -136q12 -55 90 -58q574 39 1030 64q33 -15 60 -58q3 -126 6 -200q6 -117 15 -216q-3 -33 -36 -55q-629 -149 -1203 -76q-200 21 -356 163q-177 159 -87 958q69 277 343 331q613 90 1226 -48q135 -63 168 -598q-3 -45 -48 -69q-237 -11 -366 -9
q-459 -13 -864 7zM1155 918q6 64 12 146q-2 37 -93 49q-296 25 -503 -14q-54 -28 -68 -105q-6 -52 -9 -97q321 0 661 21z" />
    <glyph glyph-name="F" unicode="F" horiz-adv-x="1708" 
d="M746 1002q141 3 320 -9q33 6 47 24q13 84 -4 217q-20 46 -90 49q-179 2 -395 -14q-9 144 19 210q22 42 902 15q37 -6 77 15q57 48 -36 264q-30 48 -101 66q-355 49 -1123 -3q-306 -36 -336 -162q-37 -150 46 -528q51 -303 27 -985q-7 -105 -24 -141q-3 -28 30 -34
q316 12 588 3q23 6 47 28q9 298 -68 899q-9 78 74 86z" />
    <glyph glyph-name="G" unicode="G" horiz-adv-x="2141" 
d="M1183 597q198 42 238 155q71 342 -101 377q-743 59 -829 -95q-113 -204 -29 -383q64 -126 721 -54zM1489 44q-379 -56 -1020 -39q-272 15 -409 243q-111 309 -7 855q86 306 610 328q817 43 1143 -103q192 -75 200 -544l1 2q-9 -816 -26 -1154q-18 -157 -315 -197
q-788 -33 -1509 8q-32 12 -38 40q-82 175 -80 327q-3 34 29 68q662 -53 1355 -10q68 20 66 176z" />
    <glyph glyph-name="H" unicode="H" horiz-adv-x="1857" 
d="M585 736q5 -339 -11 -699q3 -30 -39 -33q-179 -12 -395 0q-70 27 -95 105q-17 342 0 613q-3 550 -35 1066q18 16 46 12q301 -4 455 -9q151 -54 151 -204q2 -174 2 -309q389 66 779 54q147 -13 212 -223q65 -658 37 -1041q-6 -45 -54 -73q-177 0 -604 -18q-20 4 -31 13
q58 447 76 856q6 76 -96 90q-390 7 -398 -200z" />
    <glyph glyph-name="I" unicode="I" horiz-adv-x="719" 
d="M9 36q9 -44 81 -41l451 6q39 12 30 38q-54 468 -66 877q0 248 9 412q0 25 -42 37l-376 3q-69 3 -69 -32q0 -136 9 -270q6 -183 -10 -422q-15 -259 -17 -608zM761 1764q65 -34 62 -124q0 -58 -81.5 -114t-249.5 -63q-234 -18 -428 2q-191 24 -292 83q-68 54 -22 167
q22 57 157.5 99.5t360.5 42.5q366 -11 493 -93z" />
    <glyph glyph-name="J" unicode="J" horiz-adv-x="2120" 
d="M575 677q-91 -236 115 -278q534 -93 612 33q99 171 -23 931q-3 47 37 65q300 66 547 -8q26 -7 43 -36q52 -116 65 -553q9 -644 -96 -728q-194 -118 -1232 -105q-604 45 -626 397q1 114 33 236q4 33 28 47q182 37 479 45q21 -19 18 -46z" />
    <glyph glyph-name="K" unicode="K" horiz-adv-x="1874" 
d="M605 641q1 -73 -1 -130q-4 -393 -27 -497q-18 -17 -46 -12q-214 1 -368 6q-151 54 -151 204q-7 511 11 688q24 469 17 862q-3 30 39 33q179 12 368 3q70 -27 95 -105q38 -458 53 -765q294 -19 310 20q58 89 38 481q10 21 30 21q389 -10 621 -7q30 -10 37 -27
q14 -191 -17 -355q-23 -132 -218 -175q218 -41 286 -207q65 -324 27 -659q-14 -27 -44 -40q-304 34 -795 3q-28 7 -41 31q41 504 7 600q-15 49 -231 27z" />
    <glyph glyph-name="L" unicode="L" horiz-adv-x="1508" 
d="M19 1720q32 -782 15 -1003q-8 -226 -15 -356q-18 -340 318 -375q394 -33 986 35q37 6 39 31q11 215 -14 622q-15 69 -83 66q-222 -27 -502 -38q-155 8 -161 189q-10 711 -42 847q-14 22 -53 33q-234 35 -431 -11q-58 -20 -57 -40z" />
    <glyph glyph-name="M" unicode="M" horiz-adv-x="2616" 
d="M1321 1352q238 130 613 109q533 -77 533 -588q4 -493 -13 -867q-19 -24 -57 -35q-80 -14 -806 27q-36 7 -41 25q137 679 46 1126q-37 39 -90 32q-55 -9 -118 -74q-15 -670 4 -1091q-13 -25 -40 -39q-106 10 -514 -33q-28 4 -34 22q36 706 -44 1095q-19 36 -85 25
q-45 -2 -133 -63q23 -193 26 -436q13 -349 56 -564q9 -27 -30 -40l-504 12q-72 -3 -81 43q2 369 17 643q16 253 10 447q-9 142 -19 272q0 36 69 33l323 42q42 -12 42 -39q24 -64 43 -140q256 132 479 151q248 11 348 -95z" />
    <glyph glyph-name="N" unicode="N" horiz-adv-x="1951" 
d="M502 1394q422 56 776 53q533 -77 533 -588q4 -493 -13 -847q-19 -24 -57 -35q-291 0 -836 7q-36 7 -41 25q137 679 46 1126q-37 39 -90 32q-86 -14 -305 -68q4 -202 0 -494q13 -349 56 -564q9 -27 -30 -40l-451 -6q-72 -3 -81 43q2 369 17 643q16 253 10 447
q-9 142 -19 272q0 36 69 33l372 25q42 -12 42 -39q1 -12 2 -25z" />
    <glyph glyph-name="O" unicode="O" horiz-adv-x="2259" 
d="M252 1324q250 134 1334 113q289 -15 451 -243q124 -198 77 -855q-66 -306 -616 -328q-859 -43 -1215 103q-265 123 -263 651q13 443 232 559zM1442 343q205 42 239 155q59 311 -125 345q-789 60 -867 -94q-103 -204 0 -383q78 -126 753 -23z" />
    <glyph glyph-name="P" unicode="P" horiz-adv-x="1977" 
d="M608 443q214 -19 612 8q121 25 149 156q50 251 -84 296q-437 87 -694 12q-18 -9 17 -472zM1226 1528q339 -60 516 -292q180 -294 83 -873q-73 -269 -441 -292q-431 -17 -685 -1q0 -217 78 -458q-9 -34 -55 -34q-425 52 -601 61q-42 2 -38 35q-53 753 -60 1575
q-13 170 149 241q413 148 1054 38z" />
    <glyph glyph-name="Q" unicode="Q" horiz-adv-x="2004" 
d="M1297 539q73 23 92 99q38 264 -25 398q-283 82 -814 20q-131 -24 -85 -331q28 -152 150 -184q558 -51 682 -2zM1376 20q-317 -21 -681 -2q-598 24 -658 366q-39 634 72 819q177 227 489 241q458 15 785 -3q249 -6 346 -34q129 -60 129 -210q-7 -1022 -55 -1586
q-16 -89 -103 -104q-122 -29 -300 -5q-39 8 -30 108q7 277 6 410z" />
    <glyph glyph-name="R" unicode="R" horiz-adv-x="1468" 
d="M70 35q-60 659 -53 885q0 520 499 526h766q9 -6 16 -26q0 -360 -23 -653q-10 -16 -23 -23q-250 20 -479 11q-365 -10 -329 -370q11 -170 35 -350q0 -13 -16 -30q-167 -7 -346 -7q-30 14 -47 37z" />
    <glyph glyph-name="S" unicode="S" horiz-adv-x="1874" 
d="M1328 204q26 197 -358 507q2 37 57 38l621 -1q45 7 81 28q-5 386 -55 618q-17 24 -45 38q-610 124 -1146 21q-360 -92 -449 -314q-117 -362 364 -661q107 -96 -41 -106h-286q-91 1 -117 -35q-20 -34 42 -238q24 -66 72 -83q563 -92 1029 -6q193 38 231 194z" />
    <glyph glyph-name="T" unicode="T" horiz-adv-x="1634" 
d="M1180 946q31 10 45 34q10 113 -11 378q-14 24 -48 37q-221 0 -460 -30q-125 -21 -131 74q-1 176 1 382q-4 11 -25 17q-259 10 -467 -75l-19 -17q-86 -935 -69 -1398q19 -286 153 -352q477 -145 1307 46q29 10 33 31q25 191 -2 547q-24 48 -314 -8q-215 -37 -556 -41
q-45 4 -53 38q1 162 3 325q289 -12 613 12z" />
    <glyph glyph-name="U" unicode="U" horiz-adv-x="2054" 
d="M1294 318q-16 107 -19 235q-9 303 29 828q-2 24 22 36q337 80 490 62q122 -2 3 -698q-25 -234 -5 -434q32 -198 93 -226q18 -19 13 -37q-177 -86 -472 -114q-37 3 -52 31q-9 16 -18 33q-441 -60 -810 -57q-536 77 -536 588q-4 493 13 847q20 24 57 35q293 0 780 -7
q37 -7 41 -25q-136 -679 -46 -1126q38 -39 91 -32q81 13 326 61z" />
    <glyph glyph-name="V" unicode="V" horiz-adv-x="2323" 
d="M2 1438q-10 -18 226 -475t305 -895q14 -26 36 -33q416 -37 967 -34q29 3 47 20q135 742 604 1375q-4 16 -18 30q-157 26 -983 50q-18 -13 -21 -36q-140 -337 -319 -663q-55 238 -377 697q-29 30 -67 31l-340 -54q-55 -3 -60 -13z" />
    <glyph glyph-name="W" unicode="W" horiz-adv-x="2640" 
d="M1353 60q-278 -130 -850 -102q-493 77 -493 588q-4 493 13 867q19 24 57 35q80 14 796 -27q36 -7 41 -25q-137 -679 -46 -1126q37 -39 90 -32q116 23 118 74q15 670 -4 1091q13 25 40 39q106 -10 554 33q28 -4 34 -22q-36 -706 44 -1095q19 -36 85 -25q134 26 130 101
q-20 155 -23 398q-13 349 19 574q1 34 40 47l419 -29q72 3 81 -43q-2 -369 -17 -643q-16 -253 -10 -447q-8 -130 -274 -256q-568 -165 -844 25z" />
    <glyph glyph-name="X" unicode="X" horiz-adv-x="2097" 
d="M19 38q2 -19 43 -23q520 -17 952 -7q27 4 27 34q-2 233 117 321q356 13 322 -344q8 -10 30 -15q267 -13 378 3q27 3 30 12q-16 437 -245 507q281 222 287 900q0 18 -40 24q-500 20 -823 -4q-47 -6 -49 -30q3 -345 -80 -533q-426 -16 -357 546q2 15 -37 19
q-319 16 -453 -1q-33 -4 -35 -18q-28 -765 468 -772q-541 -46 -535 -619z" />
    <glyph glyph-name="Y" unicode="Y" horiz-adv-x="2007" 
d="M1308 425q-1 31 -2 64q-9 303 16 846q-2 24 21 36q340 115 488 97q64 -56 3 -701q-8 -798 -12 -918q-30 -374 -432 -417q-561 -30 -1501 31q-31 12 -37 40q-78 175 -77 327q-3 34 28 68q883 -73 1366 -40q139 9 159 186q-471 -70 -780 -67q-607 57 -560 588
q40 493 56 847q9 24 56 35q281 0 720 -7q35 -7 40 -25q-132 -679 -74 -968q37 -111 156 -93q80 13 366 71z" />
    <glyph glyph-name="Z" unicode="Z" horiz-adv-x="2150" 
d="M27 1396q0 -216 33 -399q10 -57 1091 -40q-1098 -159 -1111 -615q-7 -141 -3 -314q4 -31 46 -40q819 -3 1871 14q27 10 40 36q20 193 10 612q-4 27 -47 34q-186 23 -513 0q447 176 510 220q36 33 23 506q-10 36 -50 36q-299 -3 -747 -21.5t-1103 15.5q-45 -3 -50 -44z
" />
    <glyph glyph-name="bracketleft" unicode="[" horiz-adv-x="1148" 
d="M1005 -154q-18 -25 -41 -26q-243 -10 -697 25q-107 25 -185 194q-128 257 -44 1623q19 167 169 205q409 36 639 38q61 1 63 -40q-35 -403 -104 -414q-108 -10 -202 -35q-119 -40 -121 -192q-12 -508 40 -782q12 -76 90 -80q88 9 211 16q31 -14 182 -532z" />
    <glyph glyph-name="backslash" unicode="\" horiz-adv-x="1024" 
d="M357 38q21 -46 92 -43l449 6q36 13 20 40q-184 496 -310 928q-69 263 -105 436q-7 26 -52 39l-377 3q-70 3 -60 -33q37 -145 83 -286q57 -194 108 -447q57 -274 152 -643z" />
    <glyph glyph-name="bracketright" unicode="]" horiz-adv-x="1148" 
d="M5 1877q18 25 41 26q243 10 697 -25q107 -25 185 -194q128 -257 44 -1623q-19 -167 -169 -205q-409 -36 -639 -38q-61 -1 -63 40q35 403 104 414q108 10 202 35q119 40 121 192q12 508 -40 782q-12 76 -90 80q-88 -9 -211 -16q-31 14 -182 532z" />
    <glyph glyph-name="asciicircum" unicode="^" horiz-adv-x="1245" 
d="M687 1702q103 -44 176 -90q53 -37 109 -69q14 -8 32 43l102 273q6 33 -4 38q-70 32 -172 89q-165 102 -360 206q-15 7 -29 0q-195 -104 -359 -206q-103 -57 -173 -89q-10 -5 -3 -38l101 -273q18 -51 32 -43q56 32 108 69q74 46 177 90q61 26 131 62q71 -36 132 -62z" />
    <glyph glyph-name="underscore" unicode="_" horiz-adv-x="1834" 
d="M820 -118q296 16 521 10q166 -9 334 -9q43 0 40 69l-4 376q-14 42 -45 42q-203 -9 -511 -9q-503 12 -1084 6q-32 9 -46 -30l-7 -391q-4 -72 50 -81q432 2 752 17z" />
    <glyph glyph-name="grave" unicode="`" horiz-adv-x="1024" 
d="M366 1732q131 -19 228 -47q70 -25 143 -43q18 -4 30 49l70 291q1 34 -12 37q-90 15 -223 48q-215 63 -468 120q-12 10 -25 -19l-78 -301q-15 -55 6 -68q188 -44 329 -67z" />
    <glyph glyph-name="a" unicode="a" horiz-adv-x="1945" 
d="M1147 812q6 113 19 211q13 205 -372 168q-122 -24 -123 -81q3 -90 33 -153q15 -21 -14 -36q-374 9 -687 -18q-35 -3 -36 24q-12 147 -2 282q1 158 280 260q630 157 1327 -27q326 -101 200 -744q-23 -230 12 -384q33 -96 86 -123q16 -18 11 -36q-149 -145 -503 -208
q-35 3 -46 30q-21 20 -51 62q-264 -66 -919 -48q-225 25 -300 158q-92 134 -40 478q46 171 409 184q329 26 716 1zM1152 382q-8 55 -10 114v75q-57 60 -467 20q-120 -21 -142 -78q-38 -154 70 -170q455 -17 549 39z" />
    <glyph glyph-name="b" unicode="b" horiz-adv-x="1995" 
d="M500 979q-6 -182 -1 -397q245 -64 705 16q114 27 74 310q-24 140 -130 166q-592 44 -648 -95zM497 1353q184 93 678 90q598 2 658 -337q39 -632 -72 -822q-177 -235 -489 -263q-458 -35 -1131 -13q-116 20 -129 204q-6 511 9 688q21 469 15 862q-3 30 33 33q153 12 337 0
q60 -27 81 -105q6 -146 10 -337z" />
    <glyph glyph-name="c" unicode="c" horiz-adv-x="1964" 
d="M626 800q-193 -55 -99 -342q42 -107 251 -133q431 -45 761 57q44 36 86 13l145 -269q10 -30 -4 -60q-757 -176 -1483 44q-232 81 -263 632q17 479 271 597q701 253 1466 32q39 -18 38 -70l-228 -517q-25 -16 -57 -17q-337 127 -884 33z" />
    <glyph glyph-name="d" unicode="d" horiz-adv-x="1982" 
d="M644 912q-173 -36 -206 -188q-57 -307 104 -327q545 -70 684 16q78 81 39 398q-16 76 -88 99q-123 49 -533 2zM1290 1709q-5 100 34 108q279 25 406 -15q87 -22 93 -94q2 -300 7 -768q8 -177 -15 -688q-5 -150 -136 -210q-98 -28 -448 -34q-327 -18 -685 -3
q-311 14 -480 242q-105 185 -44 818q72 342 671 366q264 19 580 -2q6 133 17 280z" />
    <glyph glyph-name="e" unicode="e" horiz-adv-x="1907" 
d="M493 700q4 -82 22 -136q12 -55 90 -58q574 39 1030 64q33 -15 60 -58q3 -126 6 -200q6 -117 15 -216q-3 -33 -36 -55q-629 -149 -1203 -76q-200 21 -356 163q-177 159 -87 958q69 277 343 331q613 90 1226 -48q135 -63 168 -598q-3 -45 -48 -69q-237 -11 -366 -9
q-459 -13 -864 7zM1155 918q6 64 12 146q-2 37 -93 49q-296 25 -503 -14q-54 -28 -68 -105q-6 -52 -9 -97q321 0 661 21z" />
    <glyph glyph-name="f" unicode="f" horiz-adv-x="1708" 
d="M746 1002q141 3 320 -9q33 6 47 24q13 84 -4 217q-20 46 -90 49q-179 2 -395 -14q-9 144 19 210q22 42 902 15q37 -6 77 15q57 48 -36 264q-30 48 -101 66q-355 49 -1123 -3q-306 -36 -336 -162q-37 -150 46 -528q51 -303 27 -985q-7 -105 -24 -141q-3 -28 30 -34
q316 12 588 3q23 6 47 28q9 298 -68 899q-9 78 74 86z" />
    <glyph glyph-name="g" unicode="g" horiz-adv-x="2141" 
d="M1183 597q198 42 238 155q71 342 -101 377q-743 59 -829 -95q-113 -204 -29 -383q64 -126 721 -54zM1489 44q-379 -56 -1020 -39q-272 15 -409 243q-111 309 -7 855q86 306 610 328q817 43 1143 -103q192 -75 200 -544l1 2q-9 -816 -26 -1154q-18 -157 -315 -197
q-788 -33 -1509 8q-32 12 -38 40q-82 175 -80 327q-3 34 29 68q662 -53 1355 -10q68 20 66 176z" />
    <glyph glyph-name="h" unicode="h" horiz-adv-x="1857" 
d="M585 736q5 -339 -11 -699q3 -30 -39 -33q-179 -12 -395 0q-70 27 -95 105q-17 342 0 613q-3 550 -35 1066q18 16 46 12q301 -4 455 -9q151 -54 151 -204q2 -174 2 -309q389 66 779 54q147 -13 212 -223q65 -658 37 -1041q-6 -45 -54 -73q-177 0 -604 -18q-20 4 -31 13
q58 447 76 856q6 76 -96 90q-390 7 -398 -200z" />
    <glyph glyph-name="i" unicode="i" horiz-adv-x="719" 
d="M9 36q9 -44 81 -41l451 6q39 12 30 38q-54 468 -66 877q0 248 9 412q0 25 -42 37l-376 3q-69 3 -69 -32q0 -136 9 -270q6 -183 -10 -422q-15 -259 -17 -608zM761 1764q65 -34 62 -124q0 -58 -81.5 -114t-249.5 -63q-234 -18 -428 2q-191 24 -292 83q-68 54 -22 167
q22 57 157.5 99.5t360.5 42.5q366 -11 493 -93z" />
    <glyph glyph-name="j" unicode="j" horiz-adv-x="2120" 
d="M575 677q-91 -236 115 -278q534 -93 612 33q99 171 -23 931q-3 47 37 65q300 66 547 -8q26 -7 43 -36q52 -116 65 -553q9 -644 -96 -728q-194 -118 -1232 -105q-604 45 -626 397q1 114 33 236q4 33 28 47q182 37 479 45q21 -19 18 -46z" />
    <glyph glyph-name="k" unicode="k" horiz-adv-x="1874" 
d="M605 641q1 -73 -1 -130q-4 -393 -27 -497q-18 -17 -46 -12q-214 1 -368 6q-151 54 -151 204q-7 511 11 688q24 469 17 862q-3 30 39 33q179 12 368 3q70 -27 95 -105q38 -458 53 -765q294 -19 310 20q58 89 38 481q10 21 30 21q389 -10 621 -7q30 -10 37 -27
q14 -191 -17 -355q-23 -132 -218 -175q218 -41 286 -207q65 -324 27 -659q-14 -27 -44 -40q-304 34 -795 3q-28 7 -41 31q41 504 7 600q-15 49 -231 27z" />
    <glyph glyph-name="l" unicode="l" horiz-adv-x="1508" 
d="M19 1720q32 -782 15 -1003q-8 -226 -15 -356q-18 -340 318 -375q394 -33 986 35q37 6 39 31q11 215 -14 622q-15 69 -83 66q-222 -27 -502 -38q-155 8 -161 189q-10 711 -42 847q-14 22 -53 33q-234 35 -431 -11q-58 -20 -57 -40z" />
    <glyph glyph-name="m" unicode="m" horiz-adv-x="2616" 
d="M1321 1352q238 130 613 109q533 -77 533 -588q4 -493 -13 -867q-19 -24 -57 -35q-80 -14 -806 27q-36 7 -41 25q137 679 46 1126q-37 39 -90 32q-55 -9 -118 -74q-15 -670 4 -1091q-13 -25 -40 -39q-106 10 -514 -33q-28 4 -34 22q36 706 -44 1095q-19 36 -85 25
q-45 -2 -133 -63q23 -193 26 -436q13 -349 56 -564q9 -27 -30 -40l-504 12q-72 -3 -81 43q2 369 17 643q16 253 10 447q-9 142 -19 272q0 36 69 33l323 42q42 -12 42 -39q24 -64 43 -140q256 132 479 151q248 11 348 -95z" />
    <glyph glyph-name="n" unicode="n" horiz-adv-x="1951" 
d="M502 1394q422 56 776 53q533 -77 533 -588q4 -493 -13 -847q-19 -24 -57 -35q-291 0 -836 7q-36 7 -41 25q137 679 46 1126q-37 39 -90 32q-86 -14 -305 -68q4 -202 0 -494q13 -349 56 -564q9 -27 -30 -40l-451 -6q-72 -3 -81 43q2 369 17 643q16 253 10 447
q-9 142 -19 272q0 36 69 33l372 25q42 -12 42 -39q1 -12 2 -25z" />
    <glyph glyph-name="o" unicode="o" horiz-adv-x="2259" 
d="M252 1324q250 134 1334 113q289 -15 451 -243q124 -198 77 -855q-66 -306 -616 -328q-859 -43 -1215 103q-265 123 -263 651q13 443 232 559zM1442 343q205 42 239 155q59 311 -125 345q-789 60 -867 -94q-103 -204 0 -383q78 -126 753 -23z" />
    <glyph glyph-name="p" unicode="p" horiz-adv-x="2014" 
d="M608 427q214 -19 612 8q121 25 149 155q50 239 -84 284q-403 62 -694 12q-18 -9 17 -459zM447 1470v4q378 23 806 0q312 -20 489 -250q180 -302 83 -877q-73 -267 -441 -290q-431 -16 -685 -1q0 -215 78 -454q-9 -34 -55 -34q-425 52 -601 61q-42 2 -38 34
q-53 748 -60 1574q-3 179 149 219q119 7 275 14z" />
    <glyph glyph-name="q" unicode="q" horiz-adv-x="2004" 
d="M1297 539q73 23 92 99q38 264 -25 398q-283 82 -814 20q-131 -24 -85 -331q28 -152 150 -184q558 -51 682 -2zM1376 20q-317 -21 -681 -2q-598 24 -658 366q-39 634 72 819q177 227 489 241q458 15 785 -3q249 -6 346 -34q129 -60 129 -210q-7 -1022 -55 -1586
q-16 -89 -103 -104q-122 -29 -300 -5q-39 8 -30 108q7 277 6 410z" />
    <glyph glyph-name="r" unicode="r" horiz-adv-x="1468" 
d="M70 35q-60 659 -53 885q0 520 499 526h766q9 -6 16 -26q0 -360 -23 -653q-10 -16 -23 -23q-250 20 -479 11q-365 -10 -329 -370q11 -170 35 -350q0 -13 -16 -30q-167 -7 -346 -7q-30 14 -47 37z" />
    <glyph glyph-name="s" unicode="s" horiz-adv-x="1874" 
d="M1328 204q26 197 -358 507q2 37 57 38l621 -1q45 7 81 28q-5 386 -55 618q-17 24 -45 38q-610 124 -1146 21q-360 -92 -449 -314q-117 -362 364 -661q107 -96 -41 -106h-286q-91 1 -117 -35q-20 -34 42 -238q24 -66 72 -83q563 -92 1029 -6q193 38 231 194z" />
    <glyph glyph-name="t" unicode="t" horiz-adv-x="1634" 
d="M1180 946q31 10 45 34q10 113 -11 378q-14 24 -48 37q-221 0 -460 -30q-125 -21 -131 74q-1 176 1 382q-4 11 -25 17q-259 10 -467 -75l-19 -17q-86 -935 -69 -1398q19 -286 153 -352q477 -145 1307 46q29 10 33 31q25 191 -2 547q-24 48 -314 -8q-215 -37 -556 -41
q-45 4 -53 38q1 162 3 325q289 -12 613 12z" />
    <glyph glyph-name="u" unicode="u" horiz-adv-x="2054" 
d="M1294 318q-16 107 -19 235q-9 303 29 828q-2 24 22 36q337 80 490 62q122 -2 3 -698q-25 -234 -5 -434q32 -198 93 -226q18 -19 13 -37q-177 -86 -472 -114q-37 3 -52 31q-9 16 -18 33q-441 -60 -810 -57q-536 77 -536 588q-4 493 13 847q20 24 57 35q293 0 780 -7
q37 -7 41 -25q-136 -679 -46 -1126q38 -39 91 -32q81 13 326 61z" />
    <glyph glyph-name="v" unicode="v" horiz-adv-x="2323" 
d="M2 1438q-10 -18 226 -475t305 -895q14 -26 36 -33q416 -37 967 -34q29 3 47 20q135 742 604 1375q-4 16 -18 30q-157 26 -983 50q-18 -13 -21 -36q-140 -337 -319 -663q-55 238 -377 697q-29 30 -67 31l-340 -54q-55 -3 -60 -13z" />
    <glyph glyph-name="w" unicode="w" horiz-adv-x="2640" 
d="M1353 60q-278 -130 -850 -102q-493 77 -493 588q-4 493 13 867q19 24 57 35q80 14 796 -27q36 -7 41 -25q-137 -679 -46 -1126q37 -39 90 -32q116 23 118 74q15 670 -4 1091q13 25 40 39q106 -10 554 33q28 -4 34 -22q-36 -706 44 -1095q19 -36 85 -25q134 26 130 101
q-20 155 -23 398q-13 349 19 574q1 34 40 47l419 -29q72 3 81 -43q-2 -369 -17 -643q-16 -253 -10 -447q-8 -130 -274 -256q-568 -165 -844 25z" />
    <glyph glyph-name="x" unicode="x" horiz-adv-x="2097" 
d="M19 38q2 -19 43 -23q520 -17 952 -7q27 4 27 34q-2 233 117 321q356 13 322 -344q8 -10 30 -15q267 -13 378 3q27 3 30 12q-16 437 -245 507q281 222 287 900q0 18 -40 24q-500 20 -823 -4q-47 -6 -49 -30q3 -345 -80 -533q-426 -16 -357 546q2 15 -37 19
q-319 16 -453 -1q-33 -4 -35 -18q-28 -765 468 -772q-541 -46 -535 -619z" />
    <glyph glyph-name="y" unicode="y" horiz-adv-x="2007" 
d="M1308 425q-1 31 -2 64q-9 303 16 846q-2 24 21 36q340 115 488 97q64 -56 3 -701q-8 -798 -12 -918q-30 -374 -432 -417q-561 -30 -1501 31q-31 12 -37 40q-78 175 -77 327q-3 34 28 68q883 -73 1366 -40q139 9 159 186q-471 -70 -780 -67q-607 57 -560 588
q40 493 56 847q9 24 56 35q281 0 720 -7q35 -7 40 -25q-132 -679 -74 -968q37 -111 156 -93q80 13 366 71z" />
    <glyph glyph-name="z" unicode="z" horiz-adv-x="2150" 
d="M27 1396q0 -216 33 -399q10 -57 1091 -40q-1098 -159 -1111 -615q-7 -141 -3 -314q4 -31 46 -40q819 -3 1871 14q27 10 40 36q20 193 10 612q-4 27 -47 34q-186 23 -513 0q447 176 510 220q36 33 23 506q-10 36 -50 36q-299 -3 -747 -21.5t-1103 15.5q-45 -3 -50 -44z
" />
    <glyph glyph-name="braceleft" unicode="{" 
 />
    <glyph glyph-name="bar" unicode="|" horiz-adv-x="720" 
d="M556 651q-16 242 -10 427q9 135 9 273q0 35 -69 32l-376 -3q-42 -12 -42 -37q9 -166 9 -417q-12 -413 -66 -887q-9 -26 30 -38l451 -6q72 -3 81 41q-2 353 -17 615z" />
    <glyph glyph-name="braceright" unicode="}" 
 />
    <glyph glyph-name="asciitilde" unicode="~" horiz-adv-x="1075" 
d="M919 1753q30 9 28 81l2 308q-8 39 -26 30q-268 -54 -427 -12q-349 49 -466 15q-17 0 -25 -42l2 -333q-2 -69 22 -69q97 43 190 52q126 6 289 -53q203 -45 411 23z" />
    <glyph glyph-name="exclamdown" unicode="&#xa1;" horiz-adv-x="959" 
d="M165 35q9 -43 79 -40l440 6q38 11 29 37q-53 462 -64 864q0 245 8 406q0 25 -40 36l-367 3q-67 3 -67 -31q0 -134 9 -266q6 -180 -10 -416q-15 -255 -17 -599zM795 1719q50 -34 48 -121q0 -57 -63 -111.5t-176 -54.5q-220 -3 -383 9q-112 10 -190 67q-52 53 -16 163
q16 55 121 96.5t278 41.5q283 -11 381 -90z" />
    <glyph glyph-name="cent" unicode="&#xa2;" horiz-adv-x="1139" 
 />
    <glyph glyph-name="sterling" unicode="&#xa3;" 
 />
    <glyph glyph-name="currency" unicode="&#xa4;" 
 />
    <glyph glyph-name="yen" unicode="&#xa5;" horiz-adv-x="1262" 
 />
    <glyph glyph-name="brokenbar" unicode="&#xa6;" 
 />
    <glyph glyph-name="section" unicode="&#xa7;" 
 />
    <glyph glyph-name="dieresis" unicode="&#xa8;" horiz-adv-x="1751" 
d="M517 1713q-143 0 -230.5 41.5t-100.5 96.5q-30 110 13 163q42 88 158 99q156 29 318 9q115 -15 156.5 -78t41.5 -120q2 -87 -39 -121q-82 -79 -317 -90zM1246 1713q-143 0 -230.5 41.5t-100.5 96.5q-30 110 13 163q42 88 158 99q156 29 318 9q115 -15 156.5 -78
t41.5 -120q2 -87 -39 -121q-82 -79 -317 -90z" />
    <glyph glyph-name="copyright" unicode="&#xa9;" horiz-adv-x="1674" 
 />
    <glyph glyph-name="ordfeminine" unicode="&#xaa;" horiz-adv-x="648" 
 />
    <glyph glyph-name="guillemotleft" unicode="&#xab;" horiz-adv-x="944" 
 />
    <glyph glyph-name="logicalnot" unicode="&#xac;" 
 />
    <glyph glyph-name="registered" unicode="&#xae;" horiz-adv-x="1674" 
 />
    <glyph glyph-name="macron" unicode="&#xaf;" horiz-adv-x="670" 
 />
    <glyph glyph-name="degree" unicode="&#xb0;" horiz-adv-x="1132" 
d="M879 1375q-115 -49 -615 -41q-134 5 -208 88q-70 81 -36 310q20 101 284 119q396 16 561 -37q122 -45 121 -236q-6 -161 -107 -203zM530 1583q65 10 75 38q19 77 -39 86q-248 14 -272 -24q-32 -50 0 -94q24 -31 236 -6z" />
    <glyph glyph-name="plusminus" unicode="&#xb1;" 
 />
    <glyph glyph-name="uni00B2" unicode="&#xb2;" 
 />
    <glyph glyph-name="uni00B3" unicode="&#xb3;" 
 />
    <glyph glyph-name="acute" unicode="&#xb4;" horiz-adv-x="1024" 
d="M824 1799q21 13 6 68l-77 301q-14 29 -26 19q-252 -57 -468 -120q-133 -33 -223 -48q-13 -3 -11 -37l70 -291q11 -53 30 -49q72 18 143 43q96 28 227 47q141 23 329 67z" />
    <glyph glyph-name="mu" unicode="&#xb5;" horiz-adv-x="1180" 
 />
    <glyph glyph-name="paragraph" unicode="&#xb6;" horiz-adv-x="1024" 
 />
    <glyph glyph-name="periodcentered" unicode="&#xb7;" horiz-adv-x="508" 
 />
    <glyph glyph-name="periodcentered" unicode="&#x2219;" horiz-adv-x="508" 
 />
    <glyph glyph-name="cedilla" unicode="&#xb8;" horiz-adv-x="879" 
d="M714 79q16 -261 13 -385q0 -285 -274 -288h-419q-5 3 -9 14q0 197 13 358q5 9 12 12q137 -11 263 -6q199 6 180 203q0 53 -3 92q0 7 8 16q92 4 190 4q16 -8 26 -20z" />
    <glyph glyph-name="uni00B9" unicode="&#xb9;" 
 />
    <glyph glyph-name="ordmasculine" unicode="&#xba;" horiz-adv-x="718" 
 />
    <glyph glyph-name="guillemotright" unicode="&#xbb;" horiz-adv-x="944" 
 />
    <glyph glyph-name="onequarter" unicode="&#xbc;" horiz-adv-x="1708" 
 />
    <glyph glyph-name="onehalf" unicode="&#xbd;" horiz-adv-x="1964" 
 />
    <glyph glyph-name="threequarters" unicode="&#xbe;" horiz-adv-x="1708" 
 />
    <glyph glyph-name="questiondown" unicode="&#xbf;" horiz-adv-x="1897" 
d="M1171 1153q11 119 -55 141q-241 32 -425 9q-64 -17 -76 -73q-15 -137 -181 -265q-521 -299 -404 -639q89 -208 449 -295q536 -97 1204 23q28 13 45 35q43 292 4 561q-36 20 -81 27l-708 -20q-55 1 -57 35q301 269 285 461zM897 1807q173 0 278 -41.5t121 -96.5
q36 -110 -16 -163q-50 -88 -190 -99q-188 -29 -383 -9q-138 15 -188.5 78t-50.5 120q-2 87 48 121q98 79 381 90z" />
    <glyph glyph-name="Agrave" unicode="&#xc0;" horiz-adv-x="1945" 
d="M-33 927q-12 147 -2 282q1 158 280 260q630 157 1327 -27q326 -101 200 -744q-23 -230 12 -384q33 -96 86 -123q16 -18 11 -36q-149 -145 -503 -208q-35 3 -46 30q-35 33 -93 127q-92 186 -98 411q-3 292 25 508q13 205 -372 168q-122 -24 -123 -81q3 -90 33 -153
q15 -21 -14 -36q-374 9 -687 -18q-35 -3 -36 24zM616 622q-135 -23 -159 -87q-43 -173 78 -192q616 -22 643 73l140 -367q-253 -77 -956 -58q-225 25 -300 158q-92 134 -40 478q46 171 409 184q344 27 751 -1l-31 -233q-4 97 -535 45zM830 1728q131 -19 227 -47
q70 -25 143 -43q19 -4 30 49l70 291q2 34 -11 37q-90 15 -223 48q-216 63 -468 120q-12 10 -26 -19l-77 -301q-15 -55 6 -68q187 -44 329 -67z" />
    <glyph glyph-name="Aacute" unicode="&#xc1;" horiz-adv-x="1945" 
d="M1147 812q6 113 19 211q13 205 -372 168q-122 -24 -123 -81q3 -90 33 -153q15 -21 -14 -36q-374 9 -687 -18q-35 -3 -36 24q-12 147 -2 282q1 158 280 260q630 157 1327 -27q326 -101 200 -744q-23 -230 12 -384q33 -96 86 -123q16 -18 11 -36q-149 -145 -503 -208
q-35 3 -46 30q-21 20 -51 62q-264 -66 -919 -48q-225 25 -300 158q-92 134 -40 478q46 171 409 184q329 26 716 1zM1152 382q-8 55 -10 114v75q-57 60 -467 20q-120 -21 -142 -78q-38 -154 70 -170q455 -17 549 39zM1273 1799q22 13 6 68l-77 301q-13 29 -26 19
q-252 -57 -468 -120q-133 -33 -223 -48q-13 -3 -11 -37l70 -291q11 -53 30 -49q73 18 143 43q96 28 227 47q142 23 329 67z" />
    <glyph glyph-name="Acircumflex" unicode="&#xc2;" horiz-adv-x="1945" 
d="M1147 812q6 113 19 211q13 205 -372 168q-122 -24 -123 -81q3 -90 33 -153q15 -21 -14 -36q-374 9 -687 -18q-35 -3 -36 24q-12 147 -2 282q1 158 280 260q630 157 1327 -27q326 -101 200 -744q-23 -230 12 -384q33 -96 86 -123q16 -18 11 -36q-149 -145 -503 -208
q-35 3 -46 30q-21 20 -51 62q-264 -66 -919 -48q-225 25 -300 158q-92 134 -40 478q46 171 409 184q329 26 716 1zM1152 382q-8 55 -10 114v75q-57 60 -467 20q-120 -21 -142 -78q-38 -154 70 -170q455 -17 549 39zM1027 1702q103 -44 176 -90q53 -37 109 -69q14 -8 31 43
l102 273q7 33 -3 38q-71 32 -173 89q-164 102 -359 206q-15 7 -29 0q-195 -104 -359 -206q-103 -57 -173 -89q-10 -5 -4 -38l102 -273q18 -51 32 -43q56 32 108 69q74 46 177 90q61 26 131 62q71 -36 132 -62z" />
    <glyph glyph-name="Atilde" unicode="&#xc3;" horiz-adv-x="1945" 
d="M1147 812q6 113 19 211q13 205 -372 168q-122 -24 -123 -81q3 -90 33 -153q15 -21 -14 -36q-374 9 -687 -18q-35 -3 -36 24q-12 147 -2 282q1 158 280 260q630 157 1327 -27q326 -101 200 -744q-23 -230 12 -384q33 -96 86 -123q16 -18 11 -36q-149 -145 -503 -208
q-35 3 -46 30q-21 20 -51 62q-264 -66 -919 -48q-225 25 -300 158q-92 134 -40 478q46 171 409 184q329 26 716 1zM1152 382q-8 55 -10 114v75q-57 60 -467 20q-120 -21 -142 -78q-38 -154 70 -170q455 -17 549 39zM1309 1753q30 9 28 81l2 308q-8 39 -26 30
q-268 -54 -427 -12q-349 49 -466 15q-17 0 -25 -42l2 -333q-2 -69 22 -69q97 43 190 52q126 6 289 -53q203 -45 411 23z" />
    <glyph glyph-name="Adieresis" unicode="&#xc4;" horiz-adv-x="1945" 
d="M1147 812q6 113 19 211q13 205 -372 168q-122 -24 -123 -81q3 -90 33 -153q15 -21 -14 -36q-374 9 -687 -18q-35 -3 -36 24q-12 147 -2 282q1 158 280 260q630 157 1327 -27q326 -101 200 -744q-23 -230 12 -384q33 -96 86 -123q16 -18 11 -36q-149 -145 -503 -208
q-35 3 -46 30q-21 20 -51 62q-264 -66 -919 -48q-225 25 -300 158q-92 134 -40 478q46 171 409 184q329 26 716 1zM1152 382q-8 55 -10 114v75q-57 60 -467 20q-120 -21 -142 -78q-38 -154 70 -170q455 -17 549 39zM517 1713q-144 0 -231 41.5t-101 96.5q-29 110 14 163
q41 88 158 99q156 29 318 9q114 -15 156 -78t42 -120q2 -87 -40 -121q-81 -79 -316 -90zM1246 1713q-144 0 -231 41.5t-101 96.5q-29 110 14 163q41 88 158 99q156 29 318 9q114 -15 156 -78t42 -120q2 -87 -40 -121q-81 -79 -316 -90z" />
    <glyph glyph-name="Aring" unicode="&#xc5;" horiz-adv-x="1945" 
d="M1147 812q6 113 19 211q13 205 -372 168q-122 -24 -123 -81q3 -90 33 -153q15 -21 -14 -36q-374 9 -687 -18q-35 -3 -36 24q-12 147 -2 282q1 158 280 260q630 157 1327 -27q326 -101 200 -744q-23 -230 12 -384q33 -96 86 -123q16 -18 11 -36q-149 -145 -503 -208
q-35 3 -46 30q-21 20 -51 62q-264 -66 -919 -48q-225 25 -300 158q-92 134 -40 478q46 171 409 184q329 26 716 1zM1152 382q-8 55 -10 114v75q-57 60 -467 20q-120 -21 -142 -78q-38 -154 70 -170q455 -17 549 39zM1261 1705q-115 -49 -615 -41q-133 5 -208 88
q-70 81 -36 310q21 101 285 119q396 16 560 -37q122 -45 121 -236q-6 -161 -107 -203zM913 1913q64 10 75 38q18 77 -40 86q-247 14 -272 -24q-32 -50 0 -94q25 -31 237 -6z" />
    <glyph glyph-name="AE" unicode="&#xc6;" horiz-adv-x="3245" 
d="M1152 382q-8 55 -10 114v75q-57 60 -467 20q-120 -21 -142 -78q-38 -154 70 -170q455 -17 549 39zM2480 961q6 64 12 146q-2 37 -93 49q-296 25 -503 -14q-54 -28 -68 -105q-6 -52 -9 -97q321 0 661 21zM1684 32q-126 -53 -306 -85q-35 3 -46 30q-21 20 -51 62
q-264 -66 -919 -48q-225 25 -300 158q-92 134 -40 478q46 171 409 184q329 26 716 1q6 113 19 211q13 205 -372 168q-122 -24 -123 -81q3 -90 33 -153q15 -21 -14 -36q-374 9 -687 -18q-35 -3 -36 24q-12 147 -2 282q1 158 280 260q630 157 1327 -27q16 -5 31 -11
q46 19 99 29q613 90 1226 -48q135 -63 168 -598q-3 -45 -48 -69q-237 -11 -366 -9q-459 -13 -864 7q4 -82 22 -136q12 -55 90 -58q574 39 1030 64q33 -15 60 -58q3 -126 6 -200q6 -117 15 -216q-3 -33 -36 -55q-629 -149 -1203 -76q-61 6 -118 24z" />
    <glyph glyph-name="Ccedilla" unicode="&#xc7;" horiz-adv-x="1964" 
d="M899 -5q-311 23 -616 115q-232 81 -263 632q17 479 271 597q701 253 1466 32q39 -18 38 -70l-228 -517q-25 -16 -57 -17q-337 127 -884 33q-193 -55 -99 -342q42 -107 251 -133q431 -45 761 57q44 36 86 13l145 -269q10 -30 -4 -60q-323 -75 -640 -78q10 -193 7 -294
q0 -285 -273 -288h-420q-5 3 -9 14q0 197 13 358q5 9 12 12q137 -11 263 -6q200 6 180 203v8z" />
    <glyph glyph-name="Egrave" unicode="&#xc8;" horiz-adv-x="1907" 
d="M493 700q4 -82 22 -136q12 -55 90 -58q574 39 1030 64q33 -15 60 -58q3 -126 6 -200q6 -117 15 -216q-3 -33 -36 -55q-629 -149 -1203 -76q-200 21 -356 163q-177 159 -87 958q69 277 343 331q613 90 1226 -48q135 -63 168 -598q-3 -45 -48 -69q-237 -11 -366 -9
q-459 -13 -864 7zM1155 918q6 64 12 146q-2 37 -93 49q-296 25 -503 -14q-54 -28 -68 -105q-6 -52 -9 -97q321 0 661 21zM830 1728q131 -19 227 -47q70 -25 143 -43q19 -4 30 49l70 291q2 34 -11 37q-90 15 -223 48q-216 63 -468 120q-12 10 -26 -19l-77 -301q-15 -55 6 -68
q187 -44 329 -67z" />
    <glyph glyph-name="Eacute" unicode="&#xc9;" horiz-adv-x="1907" 
d="M493 700q4 -82 22 -136q12 -55 90 -58q574 39 1030 64q33 -15 60 -58q3 -126 6 -200q6 -117 15 -216q-3 -33 -36 -55q-629 -149 -1203 -76q-200 21 -356 163q-177 159 -87 958q69 277 343 331q613 90 1226 -48q135 -63 168 -598q-3 -45 -48 -69q-237 -11 -366 -9
q-459 -13 -864 7zM1155 918q6 64 12 146q-2 37 -93 49q-296 25 -503 -14q-54 -28 -68 -105q-6 -52 -9 -97q321 0 661 21zM1273 1799q22 13 6 68l-77 301q-13 29 -26 19q-252 -57 -468 -120q-133 -33 -223 -48q-13 -3 -11 -37l70 -291q11 -53 30 -49q73 18 143 43
q96 28 227 47q142 23 329 67z" />
    <glyph glyph-name="Ecircumflex" unicode="&#xca;" horiz-adv-x="1907" 
d="M493 700q4 -82 22 -136q12 -55 90 -58q574 39 1030 64q33 -15 60 -58q3 -126 6 -200q6 -117 15 -216q-3 -33 -36 -55q-629 -149 -1203 -76q-200 21 -356 163q-177 159 -87 958q69 277 343 331q613 90 1226 -48q135 -63 168 -598q-3 -45 -48 -69q-237 -11 -366 -9
q-459 -13 -864 7zM1155 918q6 64 12 146q-2 37 -93 49q-296 25 -503 -14q-54 -28 -68 -105q-6 -52 -9 -97q321 0 661 21zM1027 1702q103 -44 176 -90q53 -37 109 -69q14 -8 31 43l102 273q7 33 -3 38q-71 32 -173 89q-164 102 -359 206q-15 7 -29 0q-195 -104 -359 -206
q-103 -57 -173 -89q-10 -5 -4 -38l102 -273q18 -51 32 -43q56 32 108 69q74 46 177 90q61 26 131 62q71 -36 132 -62z" />
    <glyph glyph-name="Edieresis" unicode="&#xcb;" horiz-adv-x="1907" 
d="M493 700q4 -82 22 -136q12 -55 90 -58q574 39 1030 64q33 -15 60 -58q3 -126 6 -200q6 -117 15 -216q-3 -33 -36 -55q-629 -149 -1203 -76q-200 21 -356 163q-177 159 -87 958q69 277 343 331q613 90 1226 -48q135 -63 168 -598q-3 -45 -48 -69q-237 -11 -366 -9
q-459 -13 -864 7zM1155 918q6 64 12 146q-2 37 -93 49q-296 25 -503 -14q-54 -28 -68 -105q-6 -52 -9 -97q321 0 661 21zM517 1713q-144 0 -231 41.5t-101 96.5q-29 110 14 163q41 88 158 99q156 29 318 9q114 -15 156 -78t42 -120q2 -87 -40 -121q-81 -79 -316 -90z
M1246 1713q-144 0 -231 41.5t-101 96.5q-29 110 14 163q41 88 158 99q156 29 318 9q114 -15 156 -78t42 -120q2 -87 -40 -121q-81 -79 -316 -90z" />
    <glyph glyph-name="Igrave" unicode="&#xcc;" horiz-adv-x="719" 
d="M9 36q9 -44 81 -41l451 6q39 12 30 38q-54 468 -66 877q0 248 9 412q0 25 -42 37l-376 3q-69 3 -69 -32q0 -136 9 -270q6 -183 -10 -422q-15 -259 -17 -608zM247 1728q131 -19 228 -47q70 -25 143 -43q18 -4 30 49l70 291q1 34 -12 37q-90 15 -223 48q-215 63 -468 120
q-12 10 -25 -19l-78 -301q-15 -55 6 -68q188 -44 329 -67z" />
    <glyph glyph-name="Iacute" unicode="&#xcd;" horiz-adv-x="719" 
d="M9 36q9 -44 81 -41l451 6q39 12 30 38q-54 468 -66 877q0 248 9 412q0 25 -42 37l-376 3q-69 3 -69 -32q0 -136 9 -270q6 -183 -10 -422q-15 -259 -17 -608zM714 1796q21 13 6 68l-77 301q-14 29 -26 19q-252 -57 -468 -120q-133 -33 -223 -48q-13 -3 -11 -37l70 -291
q11 -53 30 -49q72 18 143 43q96 28 227 47q141 23 329 67z" />
    <glyph glyph-name="Icircumflex" unicode="&#xce;" horiz-adv-x="719" 
d="M9 36q9 -44 81 -41l451 6q39 12 30 38q-54 468 -66 877q0 248 9 412q0 25 -42 37l-376 3q-69 3 -69 -32q0 -136 9 -270q6 -183 -10 -422q-15 -259 -17 -608zM424 1698q103 -44 176 -90q53 -37 109 -69q14 -8 32 43l102 273q6 33 -4 38q-70 32 -172 89q-165 102 -360 206
q-15 7 -29 0q-195 -104 -359 -206q-103 -57 -173 -89q-10 -5 -3 -38l101 -273q18 -51 32 -43q56 32 108 69q74 46 177 90q61 26 131 62q71 -36 132 -62z" />
    <glyph glyph-name="Idieresis" unicode="&#xcf;" horiz-adv-x="719" 
d="M9 36q9 -44 81 -41l451 6q39 12 30 38q-54 468 -66 877q0 248 9 412q0 25 -42 37l-376 3q-69 3 -69 -32q0 -136 9 -270q6 -183 -10 -422q-15 -259 -17 -608zM21 1693q-106 0 -170.5 41.5t-74.5 96.5q-22 110 10 163q31 88 117 99q115 29 235 9q85 -15 116 -78t31 -120
q1 -87 -29 -121q-61 -79 -235 -90zM561 1693q-106 0 -170.5 41.5t-74.5 96.5q-22 110 10 163q30 88 117 99q115 29 235 9q85 -15 116 -78t31 -120q1 -87 -30 -121q-60 -79 -234 -90z" />
    <glyph glyph-name="Eth" unicode="&#xd0;" horiz-adv-x="1518" 
 />
    <glyph glyph-name="Ntilde" unicode="&#xd1;" horiz-adv-x="1951" 
d="M502 1394q422 56 776 53q533 -77 533 -588q4 -493 -13 -847q-19 -24 -57 -35q-291 0 -836 7q-36 7 -41 25q137 679 46 1126q-37 39 -90 32q-86 -14 -305 -68q4 -202 0 -494q13 -349 56 -564q9 -27 -30 -40l-451 -6q-72 -3 -81 43q2 369 17 643q16 253 10 447
q-9 142 -19 272q0 36 69 33l372 25q42 -12 42 -39q1 -12 2 -25zM1309 1753q30 9 28 81l2 308q-8 39 -26 30q-268 -54 -427 -12q-349 49 -466 15q-17 0 -25 -42l2 -333q-2 -69 22 -69q97 43 190 52q126 6 289 -53q203 -45 411 23z" />
    <glyph glyph-name="Ograve" unicode="&#xd2;" horiz-adv-x="2259" 
d="M252 1324q250 134 1334 113q289 -15 451 -243q124 -198 77 -855q-66 -306 -616 -328q-859 -43 -1215 103q-265 123 -263 651q13 443 232 559zM1442 343q205 42 239 155q59 311 -125 345q-789 60 -867 -94q-103 -204 0 -383q78 -126 753 -23zM1049 1725q131 -19 227 -47
q70 -25 143 -43q19 -4 30 49l70 291q2 34 -11 37q-90 15 -223 48q-216 63 -468 120q-12 10 -26 -19l-77 -301q-15 -55 6 -68q187 -44 329 -67z" />
    <glyph glyph-name="Oacute" unicode="&#xd3;" horiz-adv-x="2259" 
d="M252 1324q250 134 1334 113q289 -15 451 -243q124 -198 77 -855q-66 -306 -616 -328q-859 -43 -1215 103q-265 123 -263 651q13 443 232 559zM1442 343q205 42 239 155q59 311 -125 345q-789 60 -867 -94q-103 -204 0 -383q78 -126 753 -23zM1443 1799q22 13 6 68
l-77 301q-13 29 -26 19q-252 -57 -468 -120q-133 -33 -223 -48q-13 -3 -11 -37l70 -291q11 -53 30 -49q73 18 143 43q96 28 227 47q142 23 329 67z" />
    <glyph glyph-name="Ocircumflex" unicode="&#xd4;" horiz-adv-x="2259" 
d="M252 1324q250 134 1334 113q289 -15 451 -243q124 -198 77 -855q-66 -306 -616 -328q-859 -43 -1215 103q-265 123 -263 651q13 443 232 559zM1442 343q205 42 239 155q59 311 -125 345q-789 60 -867 -94q-103 -204 0 -383q78 -126 753 -23zM1223 1699q103 -44 176 -90
q53 -37 109 -69q14 -8 31 43l102 273q7 33 -3 38q-71 32 -173 89q-164 102 -359 206q-15 7 -29 0q-195 -104 -359 -206q-103 -57 -173 -89q-10 -5 -4 -38l102 -273q18 -51 32 -43q56 32 108 69q74 46 177 90q61 26 131 62q71 -36 132 -62z" />
    <glyph glyph-name="Otilde" unicode="&#xd5;" horiz-adv-x="2259" 
d="M252 1324q250 134 1334 113q289 -15 451 -243q124 -198 77 -855q-66 -306 -616 -328q-859 -43 -1215 103q-265 123 -263 651q13 443 232 559zM1442 343q205 42 239 155q59 311 -125 345q-789 60 -867 -94q-103 -204 0 -383q78 -126 753 -23zM1555 1746q30 9 28 81l2 308
q-8 39 -26 30q-268 -54 -427 -12q-349 49 -466 15q-17 0 -25 -42l2 -333q-2 -69 22 -69q97 43 190 52q126 6 289 -53q203 -45 411 23z" />
    <glyph glyph-name="Odieresis" unicode="&#xd6;" horiz-adv-x="2259" 
d="M252 1324q250 134 1334 113q289 -15 451 -243q124 -198 77 -855q-66 -306 -616 -328q-859 -43 -1215 103q-265 123 -263 651q13 443 232 559zM1442 343q205 42 239 155q59 311 -125 345q-789 60 -867 -94q-103 -204 0 -383q78 -126 753 -23zM736 1713q-144 0 -231 41.5
t-101 96.5q-29 110 14 163q41 88 158 99q156 29 318 9q114 -15 156 -78t42 -120q2 -87 -40 -121q-81 -79 -316 -90zM1465 1713q-144 0 -231 41.5t-101 96.5q-29 110 14 163q41 88 158 99q156 29 318 9q114 -15 156 -78t42 -120q2 -87 -40 -121q-81 -79 -316 -90z" />
    <glyph glyph-name="multiply" unicode="&#xd7;" 
 />
    <glyph glyph-name="Oslash" unicode="&#xd8;" horiz-adv-x="1614" 
 />
    <glyph glyph-name="Ugrave" unicode="&#xd9;" horiz-adv-x="2054" 
d="M1294 318q-16 107 -19 235q-9 303 29 828q-2 24 22 36q337 80 490 62q122 -2 3 -698q-25 -234 -5 -434q32 -198 93 -226q18 -19 13 -37q-177 -86 -472 -114q-37 3 -52 31q-9 16 -18 33q-441 -60 -810 -57q-536 77 -536 588q-4 493 13 847q20 24 57 35q293 0 780 -7
q37 -7 41 -25q-136 -679 -46 -1126q38 -39 91 -32q81 13 326 61zM830 1728q131 -19 227 -47q70 -25 143 -43q19 -4 30 49l70 291q2 34 -11 37q-90 15 -223 48q-216 63 -468 120q-12 10 -26 -19l-77 -301q-15 -55 6 -68q187 -44 329 -67z" />
    <glyph glyph-name="Uacute" unicode="&#xda;" horiz-adv-x="2054" 
d="M1294 318q-16 107 -19 235q-9 303 29 828q-2 24 22 36q337 80 490 62q122 -2 3 -698q-25 -234 -5 -434q32 -198 93 -226q18 -19 13 -37q-177 -86 -472 -114q-37 3 -52 31q-9 16 -18 33q-441 -60 -810 -57q-536 77 -536 588q-4 493 13 847q20 24 57 35q293 0 780 -7
q37 -7 41 -25q-136 -679 -46 -1126q38 -39 91 -32q81 13 326 61zM1273 1799q22 13 6 68l-77 301q-13 29 -26 19q-252 -57 -468 -120q-133 -33 -223 -48q-13 -3 -11 -37l70 -291q11 -53 30 -49q73 18 143 43q96 28 227 47q142 23 329 67z" />
    <glyph glyph-name="Ucircumflex" unicode="&#xdb;" horiz-adv-x="2054" 
d="M1294 318q-16 107 -19 235q-9 303 29 828q-2 24 22 36q337 80 490 62q122 -2 3 -698q-25 -234 -5 -434q32 -198 93 -226q18 -19 13 -37q-177 -86 -472 -114q-37 3 -52 31q-9 16 -18 33q-441 -60 -810 -57q-536 77 -536 588q-4 493 13 847q20 24 57 35q293 0 780 -7
q37 -7 41 -25q-136 -679 -46 -1126q38 -39 91 -32q81 13 326 61zM1164 1698q103 -44 176 -90q53 -37 109 -69q14 -8 31 43l102 273q7 33 -3 38q-71 32 -173 89q-164 102 -359 206q-15 7 -29 0q-195 -104 -359 -206q-103 -57 -173 -89q-10 -5 -4 -38l102 -273q18 -51 32 -43
q56 32 108 69q74 46 177 90q61 26 131 62q71 -36 132 -62z" />
    <glyph glyph-name="Udieresis" unicode="&#xdc;" horiz-adv-x="2054" 
d="M1294 318q-16 107 -19 235q-9 303 29 828q-2 24 22 36q337 80 490 62q122 -2 3 -698q-25 -234 -5 -434q32 -198 93 -226q18 -19 13 -37q-177 -86 -472 -114q-37 3 -52 31q-9 16 -18 33q-441 -60 -810 -57q-536 77 -536 588q-4 493 13 847q20 24 57 35q293 0 780 -7
q37 -7 41 -25q-136 -679 -46 -1126q38 -39 91 -32q81 13 326 61zM623 1713q-144 0 -231 41.5t-101 96.5q-29 110 14 163q41 88 158 99q156 29 318 9q114 -15 156 -78t42 -120q2 -87 -40 -121q-81 -79 -316 -90zM1352 1713q-144 0 -231 41.5t-101 96.5q-29 110 14 163
q41 88 158 99q156 29 318 9q114 -15 156 -78t42 -120q2 -87 -40 -121q-81 -79 -316 -90z" />
    <glyph glyph-name="Yacute" unicode="&#xdd;" horiz-adv-x="1233" 
 />
    <glyph glyph-name="Thorn" unicode="&#xde;" horiz-adv-x="1120" 
 />
    <glyph glyph-name="germandbls" unicode="&#xdf;" horiz-adv-x="1251" 
 />
    <glyph glyph-name="agrave" unicode="&#xe0;" horiz-adv-x="1945" 
d="M-33 927q-12 147 -2 282q1 158 280 260q630 157 1327 -27q326 -101 200 -744q-23 -230 12 -384q33 -96 86 -123q16 -18 11 -36q-149 -145 -503 -208q-35 3 -46 30q-35 33 -93 127q-92 186 -98 411q-3 292 25 508q13 205 -372 168q-122 -24 -123 -81q3 -90 33 -153
q15 -21 -14 -36q-374 9 -687 -18q-35 -3 -36 24zM616 622q-135 -23 -159 -87q-43 -173 78 -192q616 -22 643 73l140 -367q-253 -77 -956 -58q-225 25 -300 158q-92 134 -40 478q46 171 409 184q344 27 751 -1l-31 -233q-4 97 -535 45zM830 1728q131 -19 227 -47
q70 -25 143 -43q19 -4 30 49l70 291q2 34 -11 37q-90 15 -223 48q-216 63 -468 120q-12 10 -26 -19l-77 -301q-15 -55 6 -68q187 -44 329 -67z" />
    <glyph glyph-name="aacute" unicode="&#xe1;" horiz-adv-x="1945" 
d="M1147 812q6 113 19 211q13 205 -372 168q-122 -24 -123 -81q3 -90 33 -153q15 -21 -14 -36q-374 9 -687 -18q-35 -3 -36 24q-12 147 -2 282q1 158 280 260q630 157 1327 -27q326 -101 200 -744q-23 -230 12 -384q33 -96 86 -123q16 -18 11 -36q-149 -145 -503 -208
q-35 3 -46 30q-21 20 -51 62q-264 -66 -919 -48q-225 25 -300 158q-92 134 -40 478q46 171 409 184q329 26 716 1zM1152 382q-8 55 -10 114v75q-57 60 -467 20q-120 -21 -142 -78q-38 -154 70 -170q455 -17 549 39zM1273 1799q22 13 6 68l-77 301q-13 29 -26 19
q-252 -57 -468 -120q-133 -33 -223 -48q-13 -3 -11 -37l70 -291q11 -53 30 -49q73 18 143 43q96 28 227 47q142 23 329 67z" />
    <glyph glyph-name="acircumflex" unicode="&#xe2;" horiz-adv-x="1945" 
d="M1147 812q6 113 19 211q13 205 -372 168q-122 -24 -123 -81q3 -90 33 -153q15 -21 -14 -36q-374 9 -687 -18q-35 -3 -36 24q-12 147 -2 282q1 158 280 260q630 157 1327 -27q326 -101 200 -744q-23 -230 12 -384q33 -96 86 -123q16 -18 11 -36q-149 -145 -503 -208
q-35 3 -46 30q-21 20 -51 62q-264 -66 -919 -48q-225 25 -300 158q-92 134 -40 478q46 171 409 184q329 26 716 1zM1152 382q-8 55 -10 114v75q-57 60 -467 20q-120 -21 -142 -78q-38 -154 70 -170q455 -17 549 39zM1027 1702q103 -44 176 -90q53 -37 109 -69q14 -8 31 43
l102 273q7 33 -3 38q-71 32 -173 89q-164 102 -359 206q-15 7 -29 0q-195 -104 -359 -206q-103 -57 -173 -89q-10 -5 -4 -38l102 -273q18 -51 32 -43q56 32 108 69q74 46 177 90q61 26 131 62q71 -36 132 -62z" />
    <glyph glyph-name="atilde" unicode="&#xe3;" horiz-adv-x="1945" 
d="M1147 812q6 113 19 211q13 205 -372 168q-122 -24 -123 -81q3 -90 33 -153q15 -21 -14 -36q-374 9 -687 -18q-35 -3 -36 24q-12 147 -2 282q1 158 280 260q630 157 1327 -27q326 -101 200 -744q-23 -230 12 -384q33 -96 86 -123q16 -18 11 -36q-149 -145 -503 -208
q-35 3 -46 30q-21 20 -51 62q-264 -66 -919 -48q-225 25 -300 158q-92 134 -40 478q46 171 409 184q329 26 716 1zM1152 382q-8 55 -10 114v75q-57 60 -467 20q-120 -21 -142 -78q-38 -154 70 -170q455 -17 549 39zM1309 1753q30 9 28 81l2 308q-8 39 -26 30
q-268 -54 -427 -12q-349 49 -466 15q-17 0 -25 -42l2 -333q-2 -69 22 -69q97 43 190 52q126 6 289 -53q203 -45 411 23z" />
    <glyph glyph-name="adieresis" unicode="&#xe4;" horiz-adv-x="1945" 
d="M1147 812q6 113 19 211q13 205 -372 168q-122 -24 -123 -81q3 -90 33 -153q15 -21 -14 -36q-374 9 -687 -18q-35 -3 -36 24q-12 147 -2 282q1 158 280 260q630 157 1327 -27q326 -101 200 -744q-23 -230 12 -384q33 -96 86 -123q16 -18 11 -36q-149 -145 -503 -208
q-35 3 -46 30q-21 20 -51 62q-264 -66 -919 -48q-225 25 -300 158q-92 134 -40 478q46 171 409 184q329 26 716 1zM1152 382q-8 55 -10 114v75q-57 60 -467 20q-120 -21 -142 -78q-38 -154 70 -170q455 -17 549 39zM517 1713q-144 0 -231 41.5t-101 96.5q-29 110 14 163
q41 88 158 99q156 29 318 9q114 -15 156 -78t42 -120q2 -87 -40 -121q-81 -79 -316 -90zM1246 1713q-144 0 -231 41.5t-101 96.5q-29 110 14 163q41 88 158 99q156 29 318 9q114 -15 156 -78t42 -120q2 -87 -40 -121q-81 -79 -316 -90z" />
    <glyph glyph-name="aring" unicode="&#xe5;" horiz-adv-x="1945" 
d="M1147 812q6 113 19 211q13 205 -372 168q-122 -24 -123 -81q3 -90 33 -153q15 -21 -14 -36q-374 9 -687 -18q-35 -3 -36 24q-12 147 -2 282q1 158 280 260q630 157 1327 -27q326 -101 200 -744q-23 -230 12 -384q33 -96 86 -123q16 -18 11 -36q-149 -145 -503 -208
q-35 3 -46 30q-21 20 -51 62q-264 -66 -919 -48q-225 25 -300 158q-92 134 -40 478q46 171 409 184q329 26 716 1zM1152 382q-8 55 -10 114v75q-57 60 -467 20q-120 -21 -142 -78q-38 -154 70 -170q455 -17 549 39zM1261 1705q-115 -49 -615 -41q-133 5 -208 88
q-70 81 -36 310q21 101 285 119q396 16 560 -37q122 -45 121 -236q-6 -161 -107 -203zM913 1913q64 10 75 38q18 77 -40 86q-247 14 -272 -24q-32 -50 0 -94q25 -31 237 -6z" />
    <glyph glyph-name="ae" unicode="&#xe6;" horiz-adv-x="3245" 
d="M1152 382q-8 55 -10 114v75q-57 60 -467 20q-120 -21 -142 -78q-38 -154 70 -170q455 -17 549 39zM2480 961q6 64 12 146q-2 37 -93 49q-296 25 -503 -14q-54 -28 -68 -105q-6 -52 -9 -97q321 0 661 21zM1684 32q-126 -53 -306 -85q-35 3 -46 30q-21 20 -51 62
q-264 -66 -919 -48q-225 25 -300 158q-92 134 -40 478q46 171 409 184q329 26 716 1q6 113 19 211q13 205 -372 168q-122 -24 -123 -81q3 -90 33 -153q15 -21 -14 -36q-374 9 -687 -18q-35 -3 -36 24q-12 147 -2 282q1 158 280 260q630 157 1327 -27q16 -5 31 -11
q46 19 99 29q613 90 1226 -48q135 -63 168 -598q-3 -45 -48 -69q-237 -11 -366 -9q-459 -13 -864 7q4 -82 22 -136q12 -55 90 -58q574 39 1030 64q33 -15 60 -58q3 -126 6 -200q6 -117 15 -216q-3 -33 -36 -55q-629 -149 -1203 -76q-61 6 -118 24z" />
    <glyph glyph-name="ccedilla" unicode="&#xe7;" horiz-adv-x="1964" 
d="M899 -5q-311 23 -616 115q-232 81 -263 632q17 479 271 597q701 253 1466 32q39 -18 38 -70l-228 -517q-25 -16 -57 -17q-337 127 -884 33q-193 -55 -99 -342q42 -107 251 -133q431 -45 761 57q44 36 86 13l145 -269q10 -30 -4 -60q-323 -75 -640 -78q10 -193 7 -294
q0 -285 -273 -288h-420q-5 3 -9 14q0 197 13 358q5 9 12 12q137 -11 263 -6q200 6 180 203v8z" />
    <glyph glyph-name="egrave" unicode="&#xe8;" horiz-adv-x="1907" 
d="M493 700q4 -82 22 -136q12 -55 90 -58q574 39 1030 64q33 -15 60 -58q3 -126 6 -200q6 -117 15 -216q-3 -33 -36 -55q-629 -149 -1203 -76q-200 21 -356 163q-177 159 -87 958q69 277 343 331q613 90 1226 -48q135 -63 168 -598q-3 -45 -48 -69q-237 -11 -366 -9
q-459 -13 -864 7zM1155 918q6 64 12 146q-2 37 -93 49q-296 25 -503 -14q-54 -28 -68 -105q-6 -52 -9 -97q321 0 661 21zM830 1728q131 -19 227 -47q70 -25 143 -43q19 -4 30 49l70 291q2 34 -11 37q-90 15 -223 48q-216 63 -468 120q-12 10 -26 -19l-77 -301q-15 -55 6 -68
q187 -44 329 -67z" />
    <glyph glyph-name="eacute" unicode="&#xe9;" horiz-adv-x="1907" 
d="M493 700q4 -82 22 -136q12 -55 90 -58q574 39 1030 64q33 -15 60 -58q3 -126 6 -200q6 -117 15 -216q-3 -33 -36 -55q-629 -149 -1203 -76q-200 21 -356 163q-177 159 -87 958q69 277 343 331q613 90 1226 -48q135 -63 168 -598q-3 -45 -48 -69q-237 -11 -366 -9
q-459 -13 -864 7zM1155 918q6 64 12 146q-2 37 -93 49q-296 25 -503 -14q-54 -28 -68 -105q-6 -52 -9 -97q321 0 661 21zM1273 1799q22 13 6 68l-77 301q-13 29 -26 19q-252 -57 -468 -120q-133 -33 -223 -48q-13 -3 -11 -37l70 -291q11 -53 30 -49q73 18 143 43
q96 28 227 47q142 23 329 67z" />
    <glyph glyph-name="ecircumflex" unicode="&#xea;" horiz-adv-x="1907" 
d="M493 700q4 -82 22 -136q12 -55 90 -58q574 39 1030 64q33 -15 60 -58q3 -126 6 -200q6 -117 15 -216q-3 -33 -36 -55q-629 -149 -1203 -76q-200 21 -356 163q-177 159 -87 958q69 277 343 331q613 90 1226 -48q135 -63 168 -598q-3 -45 -48 -69q-237 -11 -366 -9
q-459 -13 -864 7zM1155 918q6 64 12 146q-2 37 -93 49q-296 25 -503 -14q-54 -28 -68 -105q-6 -52 -9 -97q321 0 661 21zM1027 1702q103 -44 176 -90q53 -37 109 -69q14 -8 31 43l102 273q7 33 -3 38q-71 32 -173 89q-164 102 -359 206q-15 7 -29 0q-195 -104 -359 -206
q-103 -57 -173 -89q-10 -5 -4 -38l102 -273q18 -51 32 -43q56 32 108 69q74 46 177 90q61 26 131 62q71 -36 132 -62z" />
    <glyph glyph-name="edieresis" unicode="&#xeb;" horiz-adv-x="1907" 
d="M493 700q4 -82 22 -136q12 -55 90 -58q574 39 1030 64q33 -15 60 -58q3 -126 6 -200q6 -117 15 -216q-3 -33 -36 -55q-629 -149 -1203 -76q-200 21 -356 163q-177 159 -87 958q69 277 343 331q613 90 1226 -48q135 -63 168 -598q-3 -45 -48 -69q-237 -11 -366 -9
q-459 -13 -864 7zM1155 918q6 64 12 146q-2 37 -93 49q-296 25 -503 -14q-54 -28 -68 -105q-6 -52 -9 -97q321 0 661 21zM517 1713q-144 0 -231 41.5t-101 96.5q-29 110 14 163q41 88 158 99q156 29 318 9q114 -15 156 -78t42 -120q2 -87 -40 -121q-81 -79 -316 -90z
M1246 1713q-144 0 -231 41.5t-101 96.5q-29 110 14 163q41 88 158 99q156 29 318 9q114 -15 156 -78t42 -120q2 -87 -40 -121q-81 -79 -316 -90z" />
    <glyph glyph-name="igrave" unicode="&#xec;" horiz-adv-x="719" 
d="M9 36q9 -44 81 -41l451 6q39 12 30 38q-54 468 -66 877q0 248 9 412q0 25 -42 37l-376 3q-69 3 -69 -32q0 -136 9 -270q6 -183 -10 -422q-15 -259 -17 -608zM247 1728q131 -19 228 -47q70 -25 143 -43q18 -4 30 49l70 291q1 34 -12 37q-90 15 -223 48q-215 63 -468 120
q-12 10 -25 -19l-78 -301q-15 -55 6 -68q188 -44 329 -67z" />
    <glyph glyph-name="iacute" unicode="&#xed;" horiz-adv-x="719" 
d="M9 36q9 -44 81 -41l451 6q39 12 30 38q-54 468 -66 877q0 248 9 412q0 25 -42 37l-376 3q-69 3 -69 -32q0 -136 9 -270q6 -183 -10 -422q-15 -259 -17 -608zM714 1796q21 13 6 68l-77 301q-14 29 -26 19q-252 -57 -468 -120q-133 -33 -223 -48q-13 -3 -11 -37l70 -291
q11 -53 30 -49q72 18 143 43q96 28 227 47q141 23 329 67z" />
    <glyph glyph-name="icircumflex" unicode="&#xee;" horiz-adv-x="719" 
d="M9 36q9 -44 81 -41l451 6q39 12 30 38q-54 468 -66 877q0 248 9 412q0 25 -42 37l-376 3q-69 3 -69 -32q0 -136 9 -270q6 -183 -10 -422q-15 -259 -17 -608zM424 1698q103 -44 176 -90q53 -37 109 -69q14 -8 32 43l102 273q6 33 -4 38q-70 32 -172 89q-165 102 -360 206
q-15 7 -29 0q-195 -104 -359 -206q-103 -57 -173 -89q-10 -5 -3 -38l101 -273q18 -51 32 -43q56 32 108 69q74 46 177 90q61 26 131 62q71 -36 132 -62z" />
    <glyph glyph-name="idieresis" unicode="&#xef;" horiz-adv-x="719" 
d="M9 36q9 -44 81 -41l451 6q39 12 30 38q-54 468 -66 877q0 248 9 412q0 25 -42 37l-376 3q-69 3 -69 -32q0 -136 9 -270q6 -183 -10 -422q-15 -259 -17 -608zM21 1693q-106 0 -170.5 41.5t-74.5 96.5q-22 110 10 163q31 88 117 99q115 29 235 9q85 -15 116 -78t31 -120
q1 -87 -29 -121q-61 -79 -235 -90zM561 1693q-106 0 -170.5 41.5t-74.5 96.5q-22 110 10 163q30 88 117 99q115 29 235 9q85 -15 116 -78t31 -120q1 -87 -30 -121q-60 -79 -234 -90z" />
    <glyph glyph-name="eth" unicode="&#xf0;" horiz-adv-x="1139" 
 />
    <glyph glyph-name="ntilde" unicode="&#xf1;" horiz-adv-x="1951" 
d="M502 1394q422 56 776 53q533 -77 533 -588q4 -493 -13 -847q-19 -24 -57 -35q-291 0 -836 7q-36 7 -41 25q137 679 46 1126q-37 39 -90 32q-86 -14 -305 -68q4 -202 0 -494q13 -349 56 -564q9 -27 -30 -40l-451 -6q-72 -3 -81 43q2 369 17 643q16 253 10 447
q-9 142 -19 272q0 36 69 33l372 25q42 -12 42 -39q1 -12 2 -25zM1309 1753q30 9 28 81l2 308q-8 39 -26 30q-268 -54 -427 -12q-349 49 -466 15q-17 0 -25 -42l2 -333q-2 -69 22 -69q97 43 190 52q126 6 289 -53q203 -45 411 23z" />
    <glyph glyph-name="ograve" unicode="&#xf2;" horiz-adv-x="2259" 
d="M252 1324q250 134 1334 113q289 -15 451 -243q124 -198 77 -855q-66 -306 -616 -328q-859 -43 -1215 103q-265 123 -263 651q13 443 232 559zM1442 343q205 42 239 155q59 311 -125 345q-789 60 -867 -94q-103 -204 0 -383q78 -126 753 -23zM1049 1725q131 -19 227 -47
q70 -25 143 -43q19 -4 30 49l70 291q2 34 -11 37q-90 15 -223 48q-216 63 -468 120q-12 10 -26 -19l-77 -301q-15 -55 6 -68q187 -44 329 -67z" />
    <glyph glyph-name="oacute" unicode="&#xf3;" horiz-adv-x="2259" 
d="M252 1324q250 134 1334 113q289 -15 451 -243q124 -198 77 -855q-66 -306 -616 -328q-859 -43 -1215 103q-265 123 -263 651q13 443 232 559zM1442 343q205 42 239 155q59 311 -125 345q-789 60 -867 -94q-103 -204 0 -383q78 -126 753 -23zM1443 1799q22 13 6 68
l-77 301q-13 29 -26 19q-252 -57 -468 -120q-133 -33 -223 -48q-13 -3 -11 -37l70 -291q11 -53 30 -49q73 18 143 43q96 28 227 47q142 23 329 67z" />
    <glyph glyph-name="ocircumflex" unicode="&#xf4;" horiz-adv-x="2259" 
d="M252 1324q250 134 1334 113q289 -15 451 -243q124 -198 77 -855q-66 -306 -616 -328q-859 -43 -1215 103q-265 123 -263 651q13 443 232 559zM1442 343q205 42 239 155q59 311 -125 345q-789 60 -867 -94q-103 -204 0 -383q78 -126 753 -23zM1223 1699q103 -44 176 -90
q53 -37 109 -69q14 -8 31 43l102 273q7 33 -3 38q-71 32 -173 89q-164 102 -359 206q-15 7 -29 0q-195 -104 -359 -206q-103 -57 -173 -89q-10 -5 -4 -38l102 -273q18 -51 32 -43q56 32 108 69q74 46 177 90q61 26 131 62q71 -36 132 -62z" />
    <glyph glyph-name="otilde" unicode="&#xf5;" horiz-adv-x="2259" 
d="M252 1324q250 134 1334 113q289 -15 451 -243q124 -198 77 -855q-66 -306 -616 -328q-859 -43 -1215 103q-265 123 -263 651q13 443 232 559zM1442 343q205 42 239 155q59 311 -125 345q-789 60 -867 -94q-103 -204 0 -383q78 -126 753 -23zM1555 1746q30 9 28 81l2 308
q-8 39 -26 30q-268 -54 -427 -12q-349 49 -466 15q-17 0 -25 -42l2 -333q-2 -69 22 -69q97 43 190 52q126 6 289 -53q203 -45 411 23z" />
    <glyph glyph-name="odieresis" unicode="&#xf6;" horiz-adv-x="2259" 
d="M252 1324q250 134 1334 113q289 -15 451 -243q124 -198 77 -855q-66 -306 -616 -328q-859 -43 -1215 103q-265 123 -263 651q13 443 232 559zM1442 343q205 42 239 155q59 311 -125 345q-789 60 -867 -94q-103 -204 0 -383q78 -126 753 -23zM736 1713q-144 0 -231 41.5
t-101 96.5q-29 110 14 163q41 88 158 99q156 29 318 9q114 -15 156 -78t42 -120q2 -87 -40 -121q-81 -79 -316 -90zM1465 1713q-144 0 -231 41.5t-101 96.5q-29 110 14 163q41 88 158 99q156 29 318 9q114 -15 156 -78t42 -120q2 -87 -40 -121q-81 -79 -316 -90z" />
    <glyph glyph-name="divide" unicode="&#xf7;" 
 />
    <glyph glyph-name="oslash" unicode="&#xf8;" horiz-adv-x="1010" 
 />
    <glyph glyph-name="ugrave" unicode="&#xf9;" horiz-adv-x="2054" 
d="M1294 318q-16 107 -19 235q-9 303 29 828q-2 24 22 36q337 80 490 62q122 -2 3 -698q-25 -234 -5 -434q32 -198 93 -226q18 -19 13 -37q-177 -86 -472 -114q-37 3 -52 31q-9 16 -18 33q-441 -60 -810 -57q-536 77 -536 588q-4 493 13 847q20 24 57 35q293 0 780 -7
q37 -7 41 -25q-136 -679 -46 -1126q38 -39 91 -32q81 13 326 61zM830 1728q131 -19 227 -47q70 -25 143 -43q19 -4 30 49l70 291q2 34 -11 37q-90 15 -223 48q-216 63 -468 120q-12 10 -26 -19l-77 -301q-15 -55 6 -68q187 -44 329 -67z" />
    <glyph glyph-name="uacute" unicode="&#xfa;" horiz-adv-x="2054" 
d="M1294 318q-16 107 -19 235q-9 303 29 828q-2 24 22 36q337 80 490 62q122 -2 3 -698q-25 -234 -5 -434q32 -198 93 -226q18 -19 13 -37q-177 -86 -472 -114q-37 3 -52 31q-9 16 -18 33q-441 -60 -810 -57q-536 77 -536 588q-4 493 13 847q20 24 57 35q293 0 780 -7
q37 -7 41 -25q-136 -679 -46 -1126q38 -39 91 -32q81 13 326 61zM1273 1799q22 13 6 68l-77 301q-13 29 -26 19q-252 -57 -468 -120q-133 -33 -223 -48q-13 -3 -11 -37l70 -291q11 -53 30 -49q73 18 143 43q96 28 227 47q142 23 329 67z" />
    <glyph glyph-name="ucircumflex" unicode="&#xfb;" horiz-adv-x="2054" 
d="M1294 318q-16 107 -19 235q-9 303 29 828q-2 24 22 36q337 80 490 62q122 -2 3 -698q-25 -234 -5 -434q32 -198 93 -226q18 -19 13 -37q-177 -86 -472 -114q-37 3 -52 31q-9 16 -18 33q-441 -60 -810 -57q-536 77 -536 588q-4 493 13 847q20 24 57 35q293 0 780 -7
q37 -7 41 -25q-136 -679 -46 -1126q38 -39 91 -32q81 13 326 61zM1164 1698q103 -44 176 -90q53 -37 109 -69q14 -8 31 43l102 273q7 33 -3 38q-71 32 -173 89q-164 102 -359 206q-15 7 -29 0q-195 -104 -359 -206q-103 -57 -173 -89q-10 -5 -4 -38l102 -273q18 -51 32 -43
q56 32 108 69q74 46 177 90q61 26 131 62q71 -36 132 -62z" />
    <glyph glyph-name="udieresis" unicode="&#xfc;" horiz-adv-x="2054" 
d="M1294 318q-16 107 -19 235q-9 303 29 828q-2 24 22 36q337 80 490 62q122 -2 3 -698q-25 -234 -5 -434q32 -198 93 -226q18 -19 13 -37q-177 -86 -472 -114q-37 3 -52 31q-9 16 -18 33q-441 -60 -810 -57q-536 77 -536 588q-4 493 13 847q20 24 57 35q293 0 780 -7
q37 -7 41 -25q-136 -679 -46 -1126q38 -39 91 -32q81 13 326 61zM623 1713q-144 0 -231 41.5t-101 96.5q-29 110 14 163q41 88 158 99q156 29 318 9q114 -15 156 -78t42 -120q2 -87 -40 -121q-81 -79 -316 -90zM1352 1713q-144 0 -231 41.5t-101 96.5q-29 110 14 163
q41 88 158 99q156 29 318 9q114 -15 156 -78t42 -120q2 -87 -40 -121q-81 -79 -316 -90z" />
    <glyph glyph-name="yacute" unicode="&#xfd;" horiz-adv-x="868" 
 />
    <glyph glyph-name="thorn" unicode="&#xfe;" horiz-adv-x="1010" 
 />
    <glyph glyph-name="ydieresis" unicode="&#xff;" horiz-adv-x="868" 
 />
    <glyph glyph-name="dotlessi" unicode="&#x131;" horiz-adv-x="514" 
 />
    <glyph glyph-name="OE" unicode="&#x152;" horiz-adv-x="3565" 
d="M1396 343q193 42 225 155q55 311 -118 345q-743 60 -817 -94q-97 -204 0 -383q74 -126 710 -23zM2796 941q6 64 12 146q-2 37 -93 49q-296 25 -503 -14q-54 -28 -68 -105q-6 -52 -9 -97q321 0 661 21zM1863 75q-143 -55 -365 -64q-859 -43 -1215 103q-265 123 -263 651
q13 443 232 559q250 134 1334 113q144 -7 257 -68q73 51 175 71q613 90 1226 -48q135 -63 168 -598q-3 -45 -48 -69q-237 -11 -366 -9q-459 -13 -864 7q4 -82 22 -136q12 -55 90 -58q574 39 1030 64q33 -15 60 -58q3 -126 6 -200q6 -117 15 -216q-3 -33 -36 -55
q-629 -149 -1203 -76q-138 15 -255 87z" />
    <glyph glyph-name="oe" unicode="&#x153;" horiz-adv-x="3565" 
d="M1396 343q193 42 225 155q55 311 -118 345q-743 60 -817 -94q-97 -204 0 -383q74 -126 710 -23zM2796 941q6 64 12 146q-2 37 -93 49q-296 25 -503 -14q-54 -28 -68 -105q-6 -52 -9 -97q321 0 661 21zM1863 75q-143 -55 -365 -64q-859 -43 -1215 103q-265 123 -263 651
q13 443 232 559q250 134 1334 113q144 -7 257 -68q73 51 175 71q613 90 1226 -48q135 -63 168 -598q-3 -45 -48 -69q-237 -11 -366 -9q-459 -13 -864 7q4 -82 22 -136q12 -55 90 -58q574 39 1030 64q33 -15 60 -58q3 -126 6 -200q6 -117 15 -216q-3 -33 -36 -55
q-629 -149 -1203 -76q-138 15 -255 87z" />
    <glyph glyph-name="circumflex" unicode="&#x2c6;" horiz-adv-x="1245" 
d="M687 1702q103 -44 176 -90q53 -37 109 -69q14 -8 32 43l102 273q6 33 -4 38q-70 32 -172 89q-165 102 -360 206q-15 7 -29 0q-195 -104 -359 -206q-103 -57 -173 -89q-10 -5 -3 -38l101 -273q18 -51 32 -43q56 32 108 69q74 46 177 90q61 26 131 62q71 -36 132 -62z" />
    <glyph glyph-name="caron" unicode="&#x2c7;" horiz-adv-x="1024" 
 />
    <glyph glyph-name="uni02C9" unicode="&#x2c9;" horiz-adv-x="1024" 
 />
    <glyph glyph-name="breve" unicode="&#x2d8;" horiz-adv-x="1024" 
 />
    <glyph glyph-name="dotaccent" unicode="&#x2d9;" horiz-adv-x="1024" 
 />
    <glyph glyph-name="ring" unicode="&#x2da;" horiz-adv-x="1125" 
d="M881 1705q-115 -49 -615 -41q-134 5 -208 88q-70 81 -36 310q20 101 284 119q396 16 561 -37q122 -45 121 -236q-6 -161 -107 -203zM532 1913q65 10 75 38q19 77 -39 86q-248 14 -272 -24q-32 -50 0 -94q24 -31 236 -6z" />
    <glyph glyph-name="ogonek" unicode="&#x2db;" horiz-adv-x="1024" 
 />
    <glyph glyph-name="tilde" unicode="&#x2dc;" horiz-adv-x="1075" 
d="M919 1753q30 9 28 81l2 308q-8 39 -26 30q-268 -54 -427 -12q-349 49 -466 15q-17 0 -25 -42l2 -333q-2 -69 22 -69q97 43 190 52q126 6 289 -53q203 -45 411 23z" />
    <glyph glyph-name="hungarumlaut" unicode="&#x2dd;" horiz-adv-x="1024" 
 />
    <glyph glyph-name="endash" unicode="&#x2013;" horiz-adv-x="1108" 
 />
    <glyph glyph-name="emdash" unicode="&#x2014;" horiz-adv-x="2048" 
 />
    <glyph glyph-name="quoteleft" unicode="&#x2018;" horiz-adv-x="557" 
 />
    <glyph glyph-name="quoteright" unicode="&#x2019;" horiz-adv-x="557" 
 />
    <glyph glyph-name="quotesinglbase" unicode="&#x201a;" horiz-adv-x="557" 
 />
    <glyph glyph-name="quotedblleft" unicode="&#x201c;" horiz-adv-x="910" 
 />
    <glyph glyph-name="quotedblright" unicode="&#x201d;" horiz-adv-x="910" 
 />
    <glyph glyph-name="quotedblbase" unicode="&#x201e;" horiz-adv-x="910" 
 />
    <glyph glyph-name="dagger" unicode="&#x2020;" 
 />
    <glyph glyph-name="daggerdbl" unicode="&#x2021;" 
 />
    <glyph glyph-name="bullet" unicode="&#x2022;" horiz-adv-x="1024" 
 />
    <glyph glyph-name="ellipsis" unicode="&#x2026;" horiz-adv-x="2048" 
 />
    <glyph glyph-name="guilsinglleft" unicode="&#x2039;" horiz-adv-x="631" 
 />
    <glyph glyph-name="guilsinglright" unicode="&#x203a;" horiz-adv-x="631" 
 />
    <glyph glyph-name="fraction" unicode="&#x2044;" horiz-adv-x="342" 
 />
    <glyph glyph-name="fraction" unicode="&#x2215;" horiz-adv-x="342" 
 />
    <glyph glyph-name="franc" unicode="&#x20a3;" 
 />
    <glyph glyph-name="lira" unicode="&#x20a4;" 
 />
    <glyph glyph-name="peseta" unicode="&#x20a7;" horiz-adv-x="2028" 
 />
    <glyph glyph-name="Euro" unicode="&#x20ac;" horiz-adv-x="1984" 
d="M136 1022q3 32 7 64q69 277 343 331q613 90 1226 -48q31 -15 13 -55l-205 -235q-36 -19 -80 -1q-471 71 -738 20q-47 -24 -70 -78q53 0 104 -1q196 0 326 4q19 0 28 -16l2 -147q3 -27 -25 -27q-107 0 -212 3q-112 2 -252 -1q-2 -29 -2 -57q69 0 135 -1q196 0 326 3
q19 0 28 -16l2 -147q3 -27 -25 -27q-107 0 -212 4q-107 1 -239 -1q4 -16 8 -29q12 -55 90 -58q574 39 1030 64q33 -15 60 -58q3 -126 6 -200q6 -117 15 -216q-3 -33 -36 -55q-629 -149 -1203 -76q-200 21 -356 163q-112 100 -117 455h-69q-34 4 -32 32l5 152q9 15 29 12h71
q1 23 3 47h-76q-34 3 -32 31l5 153q9 15 29 12h90z" />
    <glyph glyph-name="afii61352" unicode="&#x2116;" horiz-adv-x="2271" 
 />
    <glyph glyph-name="trademark" unicode="&#x2122;" horiz-adv-x="1497" 
 />
    <glyph glyph-name="partialdiff" unicode="&#x2202;" 
 />
    <glyph glyph-name="Delta" unicode="&#x2206;" horiz-adv-x="1081" 
 />
    <glyph glyph-name="product" unicode="&#x220f;" horiz-adv-x="1515" 
 />
    <glyph glyph-name="summation" unicode="&#x2211;" horiz-adv-x="1206" 
 />
    <glyph glyph-name="minus" unicode="&#x2212;" 
 />
    <glyph glyph-name="radical" unicode="&#x221a;" 
 />
    <glyph glyph-name="infinity" unicode="&#x221e;" 
 />
    <glyph glyph-name="integral" unicode="&#x222b;" horiz-adv-x="665" 
 />
    <glyph glyph-name="approxequal" unicode="&#x2248;" 
 />
    <glyph glyph-name="lessequal" unicode="&#x2264;" 
 />
    <glyph glyph-name="greaterequal" unicode="&#x2265;" 
 />
    <glyph glyph-name="uniF001" unicode="&#xf001;" horiz-adv-x="1073" 
 />
    <glyph glyph-name="uniF001" unicode="&#xfb01;" horiz-adv-x="1073" 
 />
    <glyph glyph-name="uniF002" unicode="&#xf002;" horiz-adv-x="1081" 
 />
    <glyph glyph-name="uniF002" unicode="&#xfb02;" horiz-adv-x="1081" 
 />
    </font>
</defs>
</svg>
